<svg width="120" height="78" viewBox="0 0 120 78" fill="none" xmlns="http://www.w3.org/2000/svg">
<rect x="33" y="15" width="53" height="9" fill="#F5793B"/>
<rect x="37.5" y="23.5" width="44" height="27" fill="#F5793B" stroke="black"/>
<path d="M36.0051 12.571L36.0051 12.5711L36.0051 12.5712L36.0665 13.0009L36.501 13L36.5 12.5C36.501 13 36.5011 13 36.5013 13L36.5019 13L36.5045 13L36.5149 13L36.5558 12.9999L36.7164 12.9996L37.3323 12.9984C37.8662 12.9974 38.6368 12.996 39.5833 12.9944C41.4762 12.9913 44.0728 12.9876 46.887 12.9851C52.5163 12.9802 59.0146 12.9802 62.4972 13C64.9011 13.0137 70.2779 13.0137 75.0519 13.0102C77.4392 13.0085 79.6765 13.006 81.3169 13.0038L83.274 13.0011L83.8122 13.0003L83.9528 13.0001L83.9887 13L83.9978 13L84.0001 13L84.0007 13C84.0008 13 84.0009 13 84.0001 12.5L84.0009 13L84.4941 12.9992L84.5 12.5061L84.5 12.506V12.5058L84.5 12.504L84.5002 12.4958L84.5009 12.4611C84.5016 12.4299 84.5028 12.3832 84.5049 12.3224C84.509 12.2007 84.5165 12.0228 84.53 11.8007C84.557 11.3561 84.6078 10.7366 84.7028 10.0385C84.8943 8.63111 85.2582 6.9637 85.9306 5.75452C87.112 3.87018 88.8728 2.67377 90.4897 1.94886C92.1226 1.21682 93.5485 0.991804 93.9909 0.999919C94.4612 1.00855 94.7433 1.1595 94.9301 1.37507C95.1319 1.6079 95.2741 1.97628 95.3318 2.50383C95.4479 3.56649 95.1982 5.04378 94.7809 6.63194C94.3675 8.20518 93.8078 9.82335 93.3458 11.1495L93.3045 11.268C93.0914 11.8795 92.8999 12.4292 92.7594 12.8715C92.6847 13.1069 92.6219 13.3195 92.5775 13.4996C92.5384 13.6583 92.5045 13.8254 92.5004 13.971C92.495 13.9795 92.485 13.9936 92.4672 14.0134C92.4102 14.0771 92.3094 14.1595 92.1553 14.2545C91.8488 14.4436 91.4201 14.6298 90.9649 14.7965C90.5149 14.9613 90.0621 15.0989 89.7199 15.1957C89.5493 15.244 89.4073 15.2817 89.3085 15.3073C89.2683 15.3177 89.2353 15.3261 89.2104 15.3323L89.0685 15.3337L88.4929 15.339C87.9925 15.3436 87.2675 15.3502 86.3689 15.3581C84.5718 15.3738 82.0807 15.3949 79.3044 15.4159C73.7515 15.458 67.0597 15.5 62.5 15.5C57.9401 15.5 50.4417 15.458 44.082 15.4159C40.9024 15.3949 38.0079 15.3738 35.9083 15.3581C34.8585 15.3502 34.0074 15.3436 33.4188 15.339L32.7407 15.3337L32.5642 15.3323L32.5525 15.3322L32.5506 15.3318C32.5188 15.3252 32.4717 15.3154 32.4115 15.3025C32.291 15.2766 32.1183 15.2386 31.9109 15.19C31.4951 15.0927 30.9438 14.9539 30.3952 14.7875C29.8413 14.6195 29.3125 14.4299 28.9306 14.2348C28.7377 14.1363 28.6078 14.0491 28.533 13.9799C28.5181 13.966 28.5075 13.9549 28.5 13.9465L28.5 7.84683L28.5 4.21131L28.5 3.22557C28.7878 3.30706 29.169 3.43502 29.6084 3.63146C30.6146 4.08126 31.9232 4.8889 33.1159 6.32009C34.3166 7.76096 35.0412 9.32783 35.4656 10.5402C35.6773 11.1451 35.813 11.6582 35.8954 12.0179C35.9366 12.1977 35.9645 12.3388 35.9818 12.4336C35.9904 12.481 35.9965 12.5168 36.0002 12.5399L36.0042 12.5651L36.005 12.5704L36.005 12.5707L36.0051 12.571ZM28.4847 13.9265C28.4848 13.9265 28.4854 13.9275 28.4863 13.9293C28.4851 13.9275 28.4846 13.9265 28.4847 13.9265Z" fill="#B05628" stroke="black"/>
<path d="M21.516 9.62534L21.508 9.625H21.5001C16.9846 9.625 13.8555 11.9397 11.9859 13.3227C11.9358 13.3598 11.8866 13.3962 11.8383 13.4318C11.3679 13.7792 11.0053 14.0405 10.7223 14.1903C10.5814 14.2648 10.4857 14.2976 10.425 14.3071C10.4066 14.31 10.395 14.3104 10.3884 14.31C10.3796 14.2996 10.3586 14.2695 10.3353 14.1987C10.301 14.0943 10.2725 13.9341 10.259 13.6984C10.2322 13.2276 10.2687 12.5304 10.373 11.5393C10.8692 6.82499 12.0987 4.47258 14.0138 3.25387C14.9825 2.63743 16.1581 2.28947 17.5737 2.09818C18.9912 1.90662 20.6246 1.875 22.5 1.875C25.6971 1.875 28.086 2.61279 29.7397 4.20744C31.3941 5.80273 32.3769 8.31709 32.6251 12.0125C32.6251 12.1997 32.6252 12.3775 32.6253 12.5464C32.6259 13.3347 32.6263 13.9277 32.6135 14.364C32.608 14.5535 32.6 14.7074 32.5893 14.8309C32.5106 14.7486 32.4217 14.6506 32.3178 14.536C32.2086 14.4156 32.0827 14.2768 31.9346 14.1187C30.4875 12.5735 27.5263 9.88083 21.516 9.62534ZM10.3811 14.3089C10.3812 14.3089 10.3822 14.309 10.3839 14.3096C10.3818 14.3093 10.381 14.309 10.3811 14.3089Z" fill="#F5793B" stroke="black" stroke-width="0.75"/>
<path d="M99.0159 11.1253L99.0079 11.125H98.9999C94.8699 11.125 91.6574 13.2752 89.5289 14.6999C89.2683 14.8743 89.024 15.0378 88.7963 15.1852C88.2629 15.5303 87.8454 15.7712 87.5218 15.8813C87.1994 15.991 87.0901 15.9347 87.0308 15.8755C86.9253 15.7699 86.7995 15.487 86.7551 14.8245C86.7123 14.1862 86.7488 13.2812 86.8732 12.0373C87.3742 7.02753 88.4879 4.15076 90.3301 2.50665C92.171 0.863826 94.8237 0.375 98.6245 0.375C102.274 0.375 104.737 1.1193 106.302 2.81676C107.876 4.52273 108.625 7.27685 108.625 11.5C108.625 12.5694 108.653 13.3796 108.678 13.9768C108.684 14.1195 108.69 14.2481 108.695 14.364C108.7 14.4656 108.704 14.5575 108.707 14.6404C108.696 14.6291 108.684 14.6176 108.672 14.606C107.587 13.5519 105.002 11.3798 99.0159 11.1253Z" fill="#F5793B" stroke="black" stroke-width="0.75"/>
<circle cx="21" cy="30" r="20.625" fill="#FFBC59" stroke="black" stroke-width="0.75"/>
<path d="M68.625 52V53.625L67.9475 53.625L65.5267 53.625L61 53.625L55.7179 53.625L52.7848 53.625L51.875 53.625V52V50.375L52.7145 50.375L55.4886 50.375L60.5 50.375L65.2367 50.375L67.8544 50.375L68.625 50.375V52Z" fill="#B05628" stroke="black" stroke-width="0.75"/>
<path d="M1.5337 42.181C1.29368 40.0853 1.04106 37.8949 0.764101 35.611C4.40204 44.2172 9.98089 48.0992 15.3382 49.571C20.3071 50.9361 25.0488 50.2181 27.8085 49.3437C27.5647 49.9771 27.493 50.8015 27.6289 51.7412C27.8888 53.5394 28.9105 55.9042 31.1402 58.6521C31.3552 60.6227 30.9696 64.7112 28.9827 68.3841C26.9753 72.0947 23.3411 75.374 17.0061 75.6245C13.5896 75.3768 11.0926 74.2811 9.19485 72.3833C7.28325 70.4717 5.94675 67.7139 4.92342 64.0857C3.9004 60.4586 3.19998 55.9984 2.53614 50.7111C2.23794 48.336 1.94761 45.7984 1.63863 43.0978C1.6039 42.7942 1.56893 42.4886 1.5337 42.181Z" fill="#F5793B" stroke="black" stroke-width="0.75"/>
<path d="M117.321 48.643C117.694 45.0566 118.113 41.0254 118.672 36.5005C115.326 44.8516 110.324 48.6357 105.5 50.0763C100.878 51.4565 96.4752 50.6687 93.9516 49.7856C93.9733 49.885 93.9897 49.9878 94.0011 50.0929C94.0715 50.7401 93.9695 51.5639 93.6984 52.5142C93.16 54.4014 91.9298 56.8747 89.862 59.6423C89.6686 61.6008 90.1507 65.4848 92.1238 68.9364C94.1126 72.4155 97.6054 75.4423 103.467 75.6239C107.028 74.8819 109.502 73.7197 111.292 71.9664C113.091 70.2052 114.239 67.8104 115.074 64.5324C115.91 61.25 116.424 57.12 116.979 51.9134C117.09 50.8667 117.203 49.7771 117.321 48.643Z" fill="#F5793B" stroke="black" stroke-width="0.75"/>
<circle cx="99" cy="31" r="20.625" fill="#FFBC59" stroke="black" stroke-width="0.75"/>
<circle cx="40" cy="49" r="13.625" fill="#DDA34C" stroke="black" stroke-width="0.75"/>
<circle cx="81" cy="49" r="13.625" fill="#DDA34C" stroke="black" stroke-width="0.75"/>
<circle cx="40" cy="49" r="8.75" fill="black" stroke="black" stroke-width="0.5"/>
<circle cx="81" cy="49" r="8.75" fill="black" stroke="black" stroke-width="0.5"/>
<circle cx="61" cy="37" r="6.625" stroke="black" stroke-width="0.75"/>
<circle cx="61" cy="37" r="3.75" fill="url(#paint0_linear_4_343)" stroke="black" stroke-width="0.5"/>
<path d="M68.5216 31.8586V27.1414L75.1997 29.5L68.5216 31.8586Z" fill="black" stroke="black" stroke-width="0.2"/>
<path d="M69.3 30.9279V28.0722L73.1076 29.5L69.3 30.9279Z" fill="#1E1E1E" stroke="black" stroke-width="0.1"/>
<rect x="44.1" y="27.1" width="8.8" height="5.8" rx="0.9" fill="black" stroke="black" stroke-width="0.2"/>
<rect x="46.1" y="28.1" width="4.8" height="3.8" rx="0.9" fill="#1E1E1E" stroke="black" stroke-width="0.2"/>
<path d="M7.87109 70.7869C6.56892 68.901 5.96302 66.8847 5.6318 65.5449C5.80031 65.7031 5.98012 65.8753 6.17244 66.0594C6.31841 66.1992 6.47159 66.3459 6.63249 66.4986C7.40159 67.2284 8.32128 68.0693 9.40285 68.8646C11.5681 70.4567 14.3945 71.875 18 71.875H18.0144L18.0288 71.8739C21.3724 71.6167 24.0635 70.2018 26.2221 68.6146C27.3009 67.8214 28.2501 66.9826 29.0813 66.222C29.2791 66.041 29.4693 65.8653 29.6525 65.696C29.9107 65.4575 30.1551 65.2318 30.3873 65.0221C29.4492 68.4416 26.2358 74.7466 17.9803 75.625C12.6241 75.6194 9.61626 73.3144 7.87109 70.7869Z" fill="#B05628" stroke="black" stroke-width="0.75"/>
<path d="M92.8711 70.7869C91.5689 68.901 90.963 66.8847 90.6318 65.5449C90.8003 65.7031 90.9801 65.8753 91.1724 66.0594C91.3184 66.1992 91.4716 66.3459 91.6325 66.4986C92.4016 67.2284 93.3213 68.0693 94.4029 68.8646C96.5681 70.4567 99.3945 71.875 103 71.875H103.014L103.029 71.8739C106.376 71.6164 108.944 70.199 110.981 68.608C111.998 67.8137 112.884 66.9739 113.667 66.2145C113.78 66.1055 113.89 65.9984 113.997 65.8936C114.318 65.5817 114.618 65.2894 114.902 65.0233C114.525 66.5324 113.764 68.6063 112.325 70.525C110.508 72.9471 107.605 75.1329 102.98 75.625C97.6241 75.6194 94.6163 73.3144 92.8711 70.7869Z" fill="#B05628" stroke="black" stroke-width="0.75"/>
<line x1="42.5" y1="15" x2="42.5" y2="24" stroke="black"/>
<line x1="49.5" y1="15" x2="49.5" y2="24" stroke="black"/>
<line x1="56.5" y1="15" x2="56.5" y2="24" stroke="black"/>
<line x1="63.5" y1="15" x2="63.5" y2="24" stroke="black"/>
<line x1="70.5" y1="15" x2="70.5" y2="24" stroke="black"/>
<line x1="77.5" y1="15" x2="77.5" y2="24" stroke="black"/>
<path d="M15.25 35.25H15H9.50024H9.50018H9.5H9.49998L9.498 35.25L9.48825 35.2499C9.47923 35.2497 9.46522 35.2494 9.44656 35.2488C9.40923 35.2476 9.35331 35.245 9.28148 35.2399C9.13774 35.2296 8.93076 35.209 8.68172 35.1675C8.18247 35.0843 7.52062 34.9183 6.8618 34.5889C6.20396 34.26 5.55372 33.7705 5.06739 33.041C4.5821 32.3131 4.25 31.3313 4.25 30C4.25 28.6687 4.5821 27.6869 5.06739 26.959C5.55372 26.2295 6.20396 25.74 6.8618 25.4111C7.52062 25.0817 8.18247 24.9157 8.68172 24.8325C8.93076 24.791 9.13774 24.7704 9.28148 24.7601C9.35331 24.755 9.40923 24.7524 9.44656 24.7512C9.46522 24.7506 9.47923 24.7503 9.48825 24.7501L9.498 24.75L9.49998 24.75L9.5 24.75H9.50018H9.50024H15H15.25V24.5V19.0002V19.0002V19L15.25 19L15.25 18.998L15.2501 18.9883C15.2503 18.9792 15.2506 18.9652 15.2512 18.9466C15.2524 18.9092 15.255 18.8533 15.2601 18.7815C15.2704 18.6377 15.291 18.4308 15.3325 18.1817C15.4157 17.6825 15.5817 17.0206 15.9111 16.3618C16.24 15.704 16.7295 15.0537 17.459 14.5674C18.1869 14.0821 19.1687 13.75 20.5 13.75C21.8313 13.75 22.8131 14.0821 23.541 14.5674C24.2705 15.0537 24.76 15.704 25.0889 16.3618C25.4183 17.0206 25.5843 17.6825 25.6675 18.1817C25.709 18.4308 25.7296 18.6377 25.7399 18.7815C25.745 18.8533 25.7476 18.9092 25.7488 18.9466C25.7494 18.9652 25.7497 18.9792 25.7499 18.9883L25.75 18.998L25.75 19V19V19.0002V19.0002V24.5V24.75H26H30.9998H31L31.0002 24.75L31.0025 24.75L31.0135 24.7501C31.0236 24.7503 31.0391 24.7506 31.0597 24.7512C31.101 24.7525 31.1625 24.755 31.2415 24.7602C31.3994 24.7706 31.6266 24.7913 31.8997 24.8331C32.4473 24.9167 33.1732 25.0836 33.8958 25.4148C34.618 25.7458 35.3294 26.2374 35.8603 26.9674C36.3893 27.6947 36.75 28.6735 36.75 30C36.75 31.3313 36.4179 32.3131 35.9326 33.041C35.4463 33.7705 34.796 34.26 34.1382 34.5889C33.4794 34.9183 32.8175 35.0843 32.3183 35.1675C32.0692 35.209 31.8623 35.2296 31.7185 35.2399C31.6467 35.245 31.5908 35.2476 31.5534 35.2488C31.5348 35.2494 31.5208 35.2497 31.5117 35.2499L31.502 35.25L31.5 35.25H31.5H31.4998H31.4998H26H25.75V35.5V41V41.0104L25.7508 41.0205L25.7508 41.0206L25.7509 41.0208L25.7509 41.0209L25.751 41.0231L25.7518 41.034C25.7525 41.044 25.7534 41.0594 25.7545 41.0799C25.7565 41.1209 25.7588 41.1821 25.7598 41.2608C25.7617 41.4182 25.7579 41.6445 25.7352 41.9167C25.6897 42.4626 25.5687 43.1852 25.2692 43.9038C24.9703 44.6212 24.4963 45.329 23.7465 45.8583C22.998 46.3866 21.9566 46.75 20.5 46.75C19.1427 46.75 18.1491 46.3886 17.4169 45.8598C16.6822 45.3293 16.1947 44.6188 15.8714 43.8977C15.5477 43.176 15.3917 42.4509 15.317 41.9037C15.2798 41.6308 15.2631 41.4038 15.2556 41.246C15.2519 41.1672 15.2505 41.1057 15.25 41.0645C15.2498 41.0439 15.2498 41.0284 15.2498 41.0184L15.2499 41.0074L15.2499 41.0051L15.25 41.0049H15.25V41V35.5V35.25Z" fill="#F5793B" stroke="black" stroke-width="0.5"/>
<path d="M94.25 34.75H94H88.5002H88.5002H88.5H88.5L88.498 34.75L88.4883 34.7499C88.4792 34.7497 88.4652 34.7494 88.4466 34.7488C88.4092 34.7476 88.3533 34.745 88.2815 34.7399C88.1377 34.7296 87.9308 34.709 87.6817 34.6675C87.1825 34.5843 86.5206 34.4183 85.8618 34.0889C85.204 33.76 84.5537 33.2705 84.0674 32.541C83.5821 31.8131 83.25 30.8313 83.25 29.5C83.25 28.1687 83.5821 27.1869 84.0674 26.459C84.5537 25.7295 85.204 25.24 85.8618 24.9111C86.5206 24.5817 87.1825 24.4157 87.6817 24.3325C87.9308 24.291 88.1377 24.2704 88.2815 24.2601C88.3533 24.255 88.4092 24.2524 88.4466 24.2512C88.4652 24.2506 88.4792 24.2503 88.4883 24.2501L88.498 24.25L88.5 24.25L88.5 24.25H88.5002H88.5002H94H94.25V24V18.5002V18.5002V18.5L94.25 18.5L94.25 18.498L94.2501 18.4883C94.2503 18.4792 94.2506 18.4652 94.2512 18.4466C94.2524 18.4092 94.255 18.3533 94.2601 18.2815C94.2704 18.1377 94.291 17.9308 94.3325 17.6817C94.4157 17.1825 94.5817 16.5206 94.9111 15.8618C95.24 15.204 95.7295 14.5537 96.459 14.0674C97.1869 13.5821 98.1687 13.25 99.5 13.25C100.831 13.25 101.813 13.5821 102.541 14.0674C103.271 14.5537 103.76 15.204 104.089 15.8618C104.418 16.5206 104.584 17.1825 104.667 17.6817C104.709 17.9308 104.73 18.1377 104.74 18.2815C104.745 18.3533 104.748 18.4092 104.749 18.4466C104.749 18.4652 104.75 18.4792 104.75 18.4883L104.75 18.498L104.75 18.5V18.5V18.5002V18.5002V24V24.25H105H110H110L110 24.25L110.003 24.25L110.014 24.2501C110.024 24.2503 110.039 24.2506 110.06 24.2512C110.101 24.2525 110.163 24.255 110.241 24.2602C110.399 24.2706 110.627 24.2913 110.9 24.3331C111.447 24.4167 112.173 24.5836 112.896 24.9148C113.618 25.2458 114.329 25.7374 114.86 26.4674C115.389 27.1947 115.75 28.1735 115.75 29.5C115.75 30.8313 115.418 31.8131 114.933 32.541C114.446 33.2705 113.796 33.76 113.138 34.0889C112.479 34.4183 111.818 34.5843 111.318 34.6675C111.069 34.709 110.862 34.7296 110.719 34.7399C110.647 34.745 110.591 34.7476 110.553 34.7488C110.535 34.7494 110.521 34.7497 110.512 34.7499L110.502 34.75L110.5 34.75H110.5H110.5H110.5H105H104.75V35V40.5V40.5104L104.751 40.5205L104.751 40.5206L104.751 40.5208L104.751 40.5209L104.751 40.5231L104.752 40.534C104.752 40.544 104.753 40.5594 104.754 40.5799C104.757 40.6209 104.759 40.6821 104.76 40.7608C104.762 40.9182 104.758 41.1445 104.735 41.4167C104.69 41.9626 104.569 42.6852 104.269 43.4038C103.97 44.1212 103.496 44.829 102.746 45.3583C101.998 45.8866 100.957 46.25 99.5 46.25C98.1427 46.25 97.1491 45.8886 96.4169 45.3598C95.6822 44.8293 95.1947 44.1188 94.8714 43.3977C94.5477 42.676 94.3917 41.9509 94.317 41.4037C94.2798 41.1308 94.2631 40.9038 94.2556 40.746C94.2519 40.6672 94.2505 40.6057 94.25 40.5645C94.2498 40.5439 94.2498 40.5284 94.2498 40.5184L94.2499 40.5074L94.2499 40.5051L94.25 40.5049H94.25V40.5V35V34.75Z" fill="#F5793B" stroke="black" stroke-width="0.5"/>
<path d="M10 28C10 27.4477 10.4477 27 11 27H14.5858C14.851 27 15.1054 27.1054 15.2929 27.2929L17.2929 29.2929C17.6834 29.6834 17.6834 30.3166 17.2929 30.7071L15.2929 32.7071C15.1054 32.8946 14.851 33 14.5858 33H11C10.4477 33 10 32.5523 10 32V28Z" fill="black" stroke="black" stroke-width="0.2" stroke-linejoin="round"/>
<path d="M22.5 19C23.0523 19 23.5 19.4477 23.5 20L23.5 23.5858C23.5 23.851 23.3946 24.1054 23.2071 24.2929L21.2071 26.2929C20.8166 26.6834 20.1834 26.6834 19.7929 26.2929L17.7929 24.2929C17.6054 24.1054 17.5 23.851 17.5 23.5858L17.5 20C17.5 19.4477 17.9477 19 18.5 19L22.5 19Z" fill="black" stroke="black" stroke-width="0.2" stroke-linejoin="round"/>
<path d="M31 32C31 32.5523 30.5523 33 30 33L26.4142 33C26.149 33 25.8946 32.8946 25.7071 32.7071L23.7071 30.7071C23.3166 30.3166 23.3166 29.6834 23.7071 29.2929L25.7071 27.2929C25.8946 27.1054 26.149 27 26.4142 27L30 27C30.5523 27 31 27.4477 31 28L31 32Z" fill="black" stroke="black" stroke-width="0.2" stroke-linejoin="round"/>
<path d="M18.5 41C17.9477 41 17.5 40.5523 17.5 40L17.5 36.4142C17.5 36.149 17.6054 35.8946 17.7929 35.7071L19.7929 33.7071C20.1834 33.3166 20.8166 33.3166 21.2071 33.7071L23.2071 35.7071C23.3946 35.8946 23.5 36.149 23.5 36.4142L23.5 40C23.5 40.5523 23.0523 41 22.5 41L18.5 41Z" fill="black" stroke="black" stroke-width="0.2" stroke-linejoin="round"/>
<path d="M7.95 31.8795L6.07071 30L7.95 28.1207L7.95 31.8795Z" fill="#B05628" stroke="black" stroke-width="0.1"/>
<path d="M33.05 28.1207L34.9293 30L33.05 31.8793L33.05 28.1207Z" fill="#B05628" stroke="black" stroke-width="0.1"/>
<path d="M22.3793 43.05L20.5 44.9293L18.6207 43.05L22.3793 43.05Z" fill="#B05628" stroke="black" stroke-width="0.1"/>
<path d="M18.6207 17.95L20.5 16.0707L22.3793 17.95L18.6207 17.95Z" fill="#B05628" stroke="black" stroke-width="0.1"/>
<circle cx="81" cy="49" r="5" fill="#1E1E1E"/>
<circle cx="40" cy="49" r="5" fill="#1E1E1E"/>
<circle cx="99.5" cy="19" r="3.75" fill="black" stroke="black" stroke-width="0.5"/>
<circle cx="89" cy="29.5" r="3.75" fill="black" stroke="black" stroke-width="0.5"/>
<circle cx="99.5" cy="40.5" r="3.75" fill="black" stroke="black" stroke-width="0.5"/>
<circle cx="110" cy="29.5" r="3.75" fill="black" stroke="black" stroke-width="0.5"/>
<circle cx="110" cy="29.5" r="2" fill="#1E1E1E"/>
<rect x="99.5" y="16.5" width="3.5" height="3.5" transform="rotate(45 99.5 16.5)" fill="#1E1E1E"/>
<rect x="90.75" y="27.75" width="3.5" height="3.5" transform="rotate(90 90.75 27.75)" fill="#1E1E1E"/>
<path d="M98 39L101 42" stroke="#1E1E1E" stroke-linecap="round"/>
<path d="M101 39L98 42" stroke="#1E1E1E" stroke-linecap="round"/>
<defs>
<linearGradient id="paint0_linear_4_343" x1="56.7561" y1="36.954" x2="65" y2="36.954" gradientUnits="userSpaceOnUse">
<stop stop-color="#F5793B"/>
<stop offset="1" stop-color="#FFBC59"/>
</linearGradient>
</defs>
</svg>
