<svg width="122" height="100" viewBox="0 0 122 100" fill="none" xmlns="http://www.w3.org/2000/svg">
<path d="M102.957 0H19.107C17.187 0 15.627 1.56 15.627 3.48V61.07C15.627 62.99 17.187 64.55 19.107 64.55H102.957C104.877 64.55 106.437 62.99 106.437 61.07V3.48C106.437 1.56 104.887 0 102.957 0Z" fill="#DDA34C"/>
<path d="M101.707 58.41H20.3569L21.3169 6.13998H100.747L101.707 58.41Z" fill="url(#paint0_radial_12_121)"/>
<path d="M118.047 99.03H4.54693C4.11693 99.03 3.71693 99 3.34693 98.94C0.466926 98.5 -0.863074 94.76 0.846926 92.2L1.23693 91.61H120.827L121.227 92.21C123.087 94.99 121.347 98.97 118.187 99.02C118.147 99.03 118.097 99.03 118.047 99.03Z" fill="#B05628"/>
<path d="M103.797 65.62H17.5569C16.2869 65.62 15.0169 66.39 14.3069 67.61L0.306858 93.09C-0.283142 93.97 0.296858 95.21 1.29686 95.21H120.757C121.757 95.21 122.337 93.97 121.747 93.09L107.037 67.46C106.337 66.38 105.067 65.62 103.797 65.62Z" fill="#FFBC59"/>
<path d="M83.317 90.73H38.757L41.607 82.75H80.677L83.317 90.73Z" fill="#DDA34C"/>
<path opacity="0.57" d="M69.6469 70.05L69.3769 67.85H65.9369L66.0669 70.05H69.6469ZM64.0969 70.05L63.9569 67.85H60.5069V70.05H64.0969ZM90.5669 70.05L89.7569 67.85H86.4969L87.1769 70.05H90.5669ZM85.3169 70.05L84.6369 67.85H81.3169L81.8569 70.05H85.3169ZM80.1369 70.05L79.5969 67.85H76.2269L76.6369 70.05H80.1369ZM99.0669 70.05L98.1169 67.85H91.4069L92.2269 70.05H99.0669ZM74.5669 70.05L74.1569 67.85H70.7469L71.0269 70.05H74.5669ZM30.7169 70.05L31.3969 67.85H28.1369L27.3269 70.05H30.7169ZM47.4669 70.05L47.7369 67.85H44.3269L43.9269 70.05H47.4669ZM36.3069 70.05L36.8469 67.85H33.5269L32.8569 70.05H36.3069ZM25.1269 70.05L25.9369 67.85H22.7569L21.8069 70.05H25.1269ZM41.8869 70.05L42.2969 67.85H38.9269L38.3869 70.05H41.8869ZM53.0369 70.05L53.1769 67.85H49.7369L49.4669 70.05H53.0369ZM58.6069 70.05V67.85H55.1569L55.0169 70.05H58.6069ZM80.7369 78.94H41.3169L40.5669 81.14H81.6469L80.7369 78.94ZM99.1069 81.14L97.8969 78.94H104.437L105.387 81.14H99.1069ZM83.7069 81.14L82.8769 78.94H89.1669L90.1269 81.14H83.7069ZM92.3469 81.14L91.3869 78.94H95.6969L96.7969 81.14H92.3469ZM22.6269 81.14L23.8369 78.94H17.2969L16.3469 81.14H22.6269ZM38.0269 81.14L38.8569 78.94H32.5669L31.6069 81.14H38.0269ZM29.3769 81.14L30.3469 78.94H26.0369L24.9269 81.14H29.3769ZM26.6669 73.72L27.4869 71.53H20.8169L19.8669 73.72H26.6669ZM94.9069 73.72L94.0969 71.53H100.757L101.707 73.72H94.9069ZM93.2069 73.72L92.2469 71.53H88.3969L89.2169 73.72H93.2069ZM83.1869 73.72L82.5369 71.53H86.3869L87.1669 73.72H83.1869ZM77.1469 73.72L76.6769 71.53H80.5269L81.1269 73.72H77.1469ZM71.1069 73.72L70.8269 71.53H74.6669L75.0969 73.72H71.1069ZM65.0769 73.72L64.9669 71.53H68.8169L69.0569 73.72H65.0769ZM59.0369 73.72L59.1069 71.53H62.9569L63.0169 73.72H59.0369ZM52.9969 73.72L53.2469 71.53H57.0969L56.9869 73.72H52.9969ZM46.9669 73.72L47.3869 71.53H51.2369L50.9469 73.72H46.9669ZM40.9269 73.72L41.5269 71.53H45.3769L44.9069 73.72H40.9269ZM34.8869 73.72L35.6669 71.53H39.5169L38.8769 73.72H34.8869ZM28.8569 73.72L29.8069 71.53H33.6569L32.8369 73.72H28.8569ZM26.6569 77.43L27.4669 75.23H18.7169L17.7669 77.43H26.6569ZM92.8269 77.43L92.0569 75.23H87.8869L88.5269 77.43H92.8269ZM81.8869 77.43L81.4069 75.23H85.5669L86.1869 77.43H81.8869ZM75.2369 77.43L74.9169 75.23H79.0869L79.5369 77.43H75.2369ZM68.5969 77.43L68.4269 75.23H72.5969L72.8969 77.43H68.5969ZM61.9569 77.43L61.9469 75.23H66.1069L66.2569 77.43H61.9569ZM55.3169 77.43L55.4569 75.23H59.6269L59.6169 77.43H55.3169ZM48.6669 77.43L48.9669 75.23H53.1369L52.9669 77.43H48.6669ZM42.0269 77.43L42.4869 75.23H46.6469L46.3269 77.43H42.0269ZM35.3869 77.43L35.9969 75.23H40.1669L39.6869 77.43H35.3869ZM28.7369 77.43L29.5069 75.23H33.6769L33.0469 77.43H28.7369ZM94.4269 77.43L93.6069 75.23H102.357L103.307 77.43H94.4269Z" fill="#F7651C"/>
<path d="M121.687 93.09L107.347 67.61C106.637 66.54 105.367 65.77 104.097 65.77C104.097 65.77 105.317 66.87 105.687 67.4L118.277 90.99C118.837 92.01 118.097 93.25 116.937 93.25H4.91691C3.76691 93.25 3.02691 92.02 3.56691 91.01L15.5169 67.83C15.8669 67.23 17.3969 65.84 17.3969 65.84H16.9469C15.6769 65.84 14.4069 66.61 13.6969 67.83L0.236912 93.09C-0.353088 93.97 0.226912 95.21 1.22691 95.21H120.687C121.697 95.21 122.277 93.97 121.687 93.09Z" fill="#FFBC59" fill-opacity="0.37"/>
<path d="M22.9269 3.23H36.1369" stroke="#424242" stroke-width="2.936" stroke-miterlimit="10" stroke-linecap="round"/>
<path d="M106.327 5.32C106.327 4.28 105.317 4.2 105.317 5.43V61.23C105.317 62.57 104.227 63.66 102.887 63.66H19.0368C17.6968 63.66 16.6068 62.57 16.6068 61.23V5.43C16.6068 4.2 15.5968 4.28 15.5968 5.32L14.6469 61.23C14.6469 63.65 15.8868 65.62 19.0368 65.62H102.887C105.617 65.62 107.277 63.65 107.277 61.23L106.327 5.32Z" fill="#B05628"/>
<defs>
<radialGradient id="paint0_radial_12_121" cx="0" cy="0" r="1" gradientUnits="userSpaceOnUse" gradientTransform="translate(45.3649 -20.8581) scale(75.465 81.8267)">
<stop stop-color="#F7651C"/>
<stop offset="1" stop-color="#424242"/>
</radialGradient>
</defs>
</svg>
