<svg width="592" height="340" viewBox="0 0 592 340" fill="none" xmlns="http://www.w3.org/2000/svg">
<path d="M283.377 80.1203C282.591 81.0362 282.697 82.4151 283.614 83.2001L299.534 96.8308H234.747C233.539 96.8308 232.56 97.8087 232.56 99.015C232.56 100.221 233.539 101.199 234.747 101.199H299.713L283.581 115.587C282.68 116.39 282.602 117.771 283.406 118.671C284.21 119.571 285.593 119.649 286.493 118.846L306.901 100.644C307.372 100.225 307.638 99.6228 307.631 98.9929C307.625 98.363 307.347 97.7666 306.868 97.3567L286.46 79.8834C285.543 79.0984 284.163 79.2045 283.377 80.1203Z" fill="url(#paint0_linear_1_13)"/>
<path d="M207.051 97.5589C205.843 97.5589 204.864 98.5368 204.864 99.743C204.864 100.949 205.843 101.927 207.051 101.927H225.272C226.479 101.927 227.458 100.949 227.458 99.743C227.458 98.5368 226.479 97.5589 225.272 97.5589H207.051Z" fill="url(#paint1_linear_1_13)"/>
<path d="M196.847 112.848C195.639 112.848 194.66 113.826 194.66 115.032C194.66 116.238 195.639 117.216 196.847 117.216H247.866C249.074 117.216 250.053 116.238 250.053 115.032C250.053 113.826 249.074 112.848 247.866 112.848H196.847Z" fill="url(#paint2_linear_1_13)"/>
<path fill-rule="evenodd" clip-rule="evenodd" d="M301.801 0C298.375 -8.67899e-06 295.549 0.909736 293.093 2.54851C290.686 4.15416 288.727 6.39817 286.909 8.91425C285.531 10.82 284.536 13.4711 283.904 15.4716C283.578 16.5044 283.328 17.4294 283.16 18.097C283.076 18.4315 283.011 18.7033 282.967 18.8939C282.946 18.9892 282.929 19.0644 282.917 19.117L282.904 19.179L282.9 19.1968L282.899 19.2023L282.898 19.2042C282.898 19.2046 282.898 19.2056 285.037 19.6574L282.898 19.2042C282.867 19.3528 282.851 19.5056 282.851 19.6574V29.1221H260.985C259.778 29.1221 258.799 30.0999 258.799 31.3062V37.1306H172.795C172.215 37.1306 171.659 37.3607 171.249 37.7703L166.147 42.8667C165.733 43.2797 165.503 43.841 165.506 44.4251L166.221 155.803H140.726C139.952 155.803 139.236 156.211 138.843 156.876C138.45 157.541 138.437 158.364 138.811 159.041L140.726 157.987C138.811 159.041 138.81 159.041 138.811 159.041L138.814 159.047L138.821 159.06L138.847 159.107C138.869 159.147 138.902 159.204 138.943 159.277C139.026 159.423 139.145 159.631 139.296 159.888C139.596 160.401 140.022 161.11 140.528 161.899C141.514 163.437 142.895 165.427 144.281 166.812C145.668 168.197 147.66 169.577 149.2 170.562C149.99 171.067 150.7 171.493 151.213 171.793C151.47 171.943 151.679 172.062 151.825 172.145C151.874 172.173 151.916 172.196 151.951 172.216C151.967 172.225 151.982 172.233 151.995 172.24L152.042 172.266L152.06 172.277C152.06 172.277 152.061 172.277 153.116 170.364L152.06 172.277C152.388 172.457 152.757 172.551 153.131 172.548L260.985 171.82H374.685C375.893 171.82 376.872 170.842 376.872 169.636V31.3062C376.872 30.0999 375.893 29.1221 374.685 29.1221H352.091V19.6574C352.091 19.5075 352.076 19.3581 352.045 19.2114L349.905 19.6574C352.045 19.2114 352.045 19.2117 352.045 19.2114L352.044 19.2081L352.039 19.1846L352.026 19.1224L352.009 19.0465C352 19.0046 351.989 18.9551 351.976 18.8986C351.933 18.7075 351.869 18.4351 351.785 18.0999C351.618 17.4309 351.37 16.5041 351.044 15.4696C350.414 13.4673 349.418 10.8106 348.027 8.9058C345.899 5.99087 343.524 3.7329 340.674 2.21801C337.816 0.698686 334.617 3.2981e-06 330.955 0H301.801ZM287.224 29.1221V19.8972L287.23 19.8709C287.267 19.707 287.325 19.4651 287.401 19.1631C287.553 18.5578 287.78 17.7186 288.074 16.7867C288.684 14.8576 289.511 12.7763 290.454 11.4712C292.15 9.12433 293.749 7.36406 295.522 6.18115C297.245 5.03137 299.222 4.3683 301.801 4.36831H303.919C302.457 5.59952 301.141 7.13659 299.949 9.03077C298.003 12.1253 296.699 15.8415 296.699 19.6574V29.1221H287.224ZM309.732 5.86149C312.091 4.84148 314.941 4.43908 318.585 4.36832C321.509 4.37126 323.748 5.0019 325.692 6.14014C327.677 7.3025 329.483 9.06849 331.419 11.5392C333.424 14.0967 334.599 16.7322 334.599 19.6574V29.1221H301.072V19.6574C301.072 16.8175 302.054 13.8959 303.652 11.3547C305.445 8.50497 307.43 6.85627 309.732 5.86149ZM334.599 43.6831V33.4904H287.224V42.955C287.224 44.1613 286.245 45.1392 285.037 45.1392C283.83 45.1392 282.851 44.1613 282.851 42.955V33.4904H263.172V91.0064C263.172 92.2127 262.193 93.1906 260.985 93.1906C259.778 93.1906 258.799 92.2127 258.799 91.0064V53.1477H181.541V143.426H258.799V110.664C258.799 109.458 259.778 108.48 260.985 108.48C262.193 108.48 263.172 109.458 263.172 110.664V167.452H347.718V33.4904H338.972V43.6831C338.972 44.8894 337.993 45.8672 336.785 45.8672C335.578 45.8672 334.599 44.8894 334.599 43.6831ZM258.799 41.4989V48.7794H179.355C178.147 48.7794 177.168 49.7573 177.168 50.9636V145.61C177.168 146.817 178.147 147.794 179.355 147.794H258.799V160.171H243.67L239.937 156.443C239.527 156.033 238.971 155.803 238.391 155.803H170.594L169.885 45.31L173.701 41.4989H258.799ZM242.764 164.54H258.799V167.467L153.686 168.176C153.606 168.13 153.518 168.079 153.422 168.023C152.946 167.745 152.288 167.35 151.558 166.883C150.059 165.924 148.406 164.755 147.374 163.723C146.484 162.834 145.492 161.486 144.62 160.171H237.485L241.218 163.9C241.628 164.31 242.184 164.54 242.764 164.54ZM362.295 160.987L369.172 167.452H355.418L362.295 160.987ZM372.499 164.581L364.481 157.043V33.4904H372.499V164.581ZM352.091 33.4904H360.108V157.043L352.091 164.581V33.4904ZM338.972 29.1221H347.718V19.8943L347.711 19.8653C347.674 19.7013 347.618 19.4592 347.542 19.1571C347.391 18.5514 347.166 17.712 346.873 16.7802C346.265 14.8502 345.439 12.7746 344.494 11.4796C342.646 8.94855 340.742 7.20224 338.62 6.07436C336.506 4.9509 334.04 4.36831 330.955 4.36831H330.685C332.176 5.64484 333.539 7.15743 334.863 8.84619C337.255 11.8987 338.972 15.4575 338.972 19.6574V29.1221Z" fill="url(#paint3_linear_1_13)"/>
<path d="M0 203.418H52.5644V207.611H0V203.418Z" fill="url(#paint4_linear_1_13)"/>
<path d="M30.1742 212.504H52.5644V216.697H34.3724V271.563H30.1742V212.504Z" fill="url(#paint5_linear_1_13)"/>
<path d="M18.1045 216.697H0V212.504H22.3027V271.563H18.1045V216.697Z" fill="url(#paint6_linear_1_13)"/>
<path d="M67.7663 203.418H114.996V207.611H71.9645V267.37H116.745V271.563H67.7663V203.418Z" fill="url(#paint7_linear_1_13)"/>
<path d="M79.4862 212.504H114.996V216.697H83.6843V230.152H110.535V234.345H79.4862V212.504Z" fill="url(#paint8_linear_1_13)"/>
<path d="M79.4862 238.976H110.535V243.169H83.6843V258.284H116.745V262.477H79.4862V238.976Z" fill="url(#paint9_linear_1_13)"/>
<path d="M189.115 259.681C186.958 263.875 183.605 267.195 179.057 269.641C174.567 272.087 169.407 273.31 163.576 273.31C157.046 273.31 151.303 271.854 146.346 268.942C141.449 265.972 137.6 261.807 134.801 256.449C132.061 251.032 130.691 244.654 130.691 237.316C130.691 230.093 132.061 223.803 134.801 218.445C137.6 213.086 141.449 208.951 146.346 206.039C151.303 203.068 157.017 201.583 163.489 201.583C167.629 201.583 171.39 202.165 174.771 203.33C178.153 204.495 181.04 206.097 183.43 208.135C185.821 210.174 187.57 212.504 188.678 215.125L185.792 217.746C183.284 213.261 180.107 210.145 176.258 208.397C172.41 206.65 168.154 205.776 163.489 205.776C157.775 205.776 152.76 207.087 148.445 209.708C144.189 212.329 140.865 215.998 138.475 220.716C136.084 225.434 134.889 230.967 134.889 237.316C134.889 243.781 136.084 249.401 138.475 254.177C140.865 258.953 144.218 262.652 148.533 265.273C152.848 267.894 157.862 269.204 163.576 269.204C168.124 269.204 172.293 268.302 176.083 266.496C179.932 264.69 183.372 261.487 186.404 256.886L189.115 259.681Z" fill="url(#paint10_linear_1_13)"/>
<path d="M182.643 253.129C180.369 256.624 177.658 259.215 174.509 260.904C171.36 262.535 168.183 263.351 164.976 263.351C161.127 263.351 157.571 262.39 154.305 260.468C151.098 258.546 148.533 255.663 146.609 251.818C144.685 247.974 143.723 243.14 143.723 237.316C143.723 231.724 144.685 227.006 146.609 223.162C148.533 219.318 151.098 216.435 154.305 214.513C157.512 212.533 161.04 211.543 164.888 211.543C167.979 211.543 171.069 212.358 174.159 213.989C177.25 215.561 179.786 218.066 181.768 221.502L178.707 224.298C178.008 222.726 176.929 221.299 175.471 220.017C174.072 218.678 172.439 217.629 170.573 216.872C168.707 216.115 166.812 215.736 164.888 215.736C161.74 215.736 158.883 216.581 156.317 218.27C153.752 219.959 151.711 222.405 150.195 225.609C148.679 228.812 147.921 232.714 147.921 237.316C147.921 242.092 148.679 246.111 150.195 249.372C151.711 252.634 153.752 255.08 156.317 256.711C158.883 258.342 161.769 259.157 164.976 259.157C166.9 259.157 168.795 258.779 170.661 258.021C172.585 257.206 174.334 256.128 175.908 254.789C177.483 253.391 178.678 251.789 179.494 249.984L182.643 253.129Z" fill="url(#paint11_linear_1_13)"/>
<path d="M216.78 203.418H220.978V229.715H243.893V203.418H248.091V233.908H216.78V203.418Z" fill="url(#paint12_linear_1_13)"/>
<path d="M256.05 203.418H260.248V271.563H256.05V203.418Z" fill="url(#paint13_linear_1_13)"/>
<path d="M204.797 203.418H208.996V271.563H204.797V203.418Z" fill="url(#paint14_linear_1_13)"/>
<path d="M243.893 243.082H220.978V271.563H216.78V238.888H248.091V271.563H243.893V243.082Z" fill="url(#paint15_linear_1_13)"/>
<path d="M332.517 240.898C327.328 239.034 323.392 236.646 320.71 233.734C318.086 230.821 316.774 226.832 316.774 221.764C316.774 218.095 317.736 214.746 319.66 211.717C321.585 208.63 324.354 206.184 327.969 204.379C331.584 202.515 335.928 201.583 341.001 201.583C353.421 201.583 361.584 206.097 365.49 215.125L362.167 217.484C359.834 212.824 356.89 209.708 353.333 208.135C349.835 206.563 345.724 205.776 341.001 205.776C336.861 205.776 333.275 206.504 330.243 207.961C327.27 209.358 324.966 211.281 323.334 213.727C321.759 216.115 320.972 218.794 320.972 221.764C320.972 225.842 322.08 229.016 324.296 231.287C326.512 233.559 329.718 235.452 333.917 236.966L343.8 240.461C348.231 242.033 351.234 243.868 352.808 245.965C354.383 248.003 355.17 250.333 355.17 252.954C355.17 256.099 354.091 258.72 351.934 260.817C349.776 262.914 346.19 263.962 341.176 263.962C337.503 263.962 333.975 262.827 330.593 260.555C327.211 258.225 324.412 254.643 322.197 249.809L325.783 247.363C327.299 251.265 329.485 254.323 332.342 256.536C335.199 258.691 338.144 259.769 341.176 259.769C344.558 259.769 347.036 259.157 348.61 257.934C350.184 256.711 350.972 255.051 350.972 252.954C350.972 251.09 350.33 249.489 349.047 248.149C347.765 246.751 345.549 245.499 342.4 244.392L332.517 240.898Z" fill="url(#paint16_linear_1_13)"/>
<path d="M338.202 231.375C334.412 230.093 331.759 228.55 330.243 226.744C328.727 224.939 327.969 222.988 327.969 220.891C327.969 219.085 328.377 217.396 329.194 215.824C330.068 214.251 331.497 212.97 333.479 211.979C335.52 210.989 338.231 210.494 341.613 210.494C345.053 210.494 348.144 211.368 350.884 213.115C353.625 214.863 355.811 217.454 357.444 220.891L353.945 223.424C352.896 220.629 351.263 218.474 349.047 216.959C346.832 215.445 344.354 214.688 341.613 214.688C338.231 214.688 335.812 215.299 334.354 216.522C332.896 217.687 332.167 219.143 332.167 220.891C332.167 223.57 334.616 225.725 339.514 227.356L350.359 230.938C355.549 232.627 359.659 235.102 362.691 238.364C365.782 241.626 367.327 245.907 367.327 251.207C367.327 258.254 365.053 263.7 360.505 267.544C356.015 271.388 349.601 273.31 341.263 273.31C334.208 273.31 328.348 271.738 323.684 268.593C319.019 265.448 315.725 261.079 313.8 255.488L316.949 253.391C319.515 259.157 322.838 263.234 326.92 265.622C331.001 268.01 335.782 269.204 341.263 269.204C348.202 269.204 353.566 267.661 357.356 264.574C361.205 261.487 363.129 257.031 363.129 251.207C363.129 246.897 361.817 243.46 359.193 240.898C356.627 238.335 353.246 236.355 349.047 234.957L338.202 231.375Z" fill="url(#paint17_linear_1_13)"/>
<path d="M398.71 203.418H402.908V229.715H425.823V203.418H430.021V233.908H398.71V203.418Z" fill="url(#paint18_linear_1_13)"/>
<path d="M437.98 203.418H442.178V271.563H437.98V203.418Z" fill="url(#paint19_linear_1_13)"/>
<path d="M386.728 203.418H390.926V271.563H386.728V203.418Z" fill="url(#paint20_linear_1_13)"/>
<path d="M425.823 243.082H402.908V271.563H398.71V238.888H430.021V271.563H425.823V243.082Z" fill="url(#paint21_linear_1_13)"/>
<path fill-rule="evenodd" clip-rule="evenodd" d="M491.644 263.875C488.145 263.875 484.909 262.856 481.936 260.817C479.02 258.779 476.688 255.808 474.939 251.906C473.19 247.945 472.315 243.082 472.315 237.316C472.315 231.491 473.248 226.657 475.114 222.813C476.98 218.911 479.37 215.998 482.286 214.076C485.259 212.096 488.379 211.106 491.644 211.106C495.142 211.106 498.32 212.096 501.177 214.076C504.093 215.998 506.396 218.911 508.087 222.813C509.836 226.657 510.711 231.491 510.711 237.316C510.711 243.082 509.807 247.945 507.999 251.906C506.192 255.808 503.83 258.779 500.915 260.817C498.058 262.856 494.968 263.875 491.644 263.875ZM491.644 259.681C494.384 259.681 496.863 258.808 499.078 257.06C501.352 255.313 503.16 252.779 504.501 249.46C505.842 246.081 506.512 242.033 506.512 237.316C506.512 230.21 505.113 224.764 502.314 220.978C499.516 217.192 495.959 215.299 491.644 215.299C488.962 215.299 486.455 216.144 484.122 217.833C481.848 219.522 480.012 221.997 478.612 225.259C477.213 228.521 476.513 232.54 476.513 237.316C476.513 242.033 477.155 246.081 478.437 249.46C479.778 252.779 481.586 255.313 483.86 257.06C486.192 258.808 488.787 259.681 491.644 259.681Z" fill="url(#paint22_linear_1_13)"/>
<path fill-rule="evenodd" clip-rule="evenodd" d="M491.644 273.31C485.347 273.31 479.837 271.854 475.114 268.942C470.391 266.03 466.717 261.895 464.094 256.536C461.47 251.12 460.158 244.713 460.158 237.316C460.158 230.093 461.47 223.803 464.094 218.445C466.717 213.086 470.391 208.951 475.114 206.039C479.837 203.068 485.347 201.583 491.644 201.583C497.941 201.583 503.422 203.068 508.087 206.039C512.81 209.009 516.454 213.173 519.019 218.532C521.585 223.89 522.868 230.152 522.868 237.316C522.868 244.713 521.585 251.12 519.019 256.536C516.454 261.895 512.81 266.03 508.087 268.942C503.422 271.854 497.941 273.31 491.644 273.31ZM491.644 269.204C497.183 269.204 501.964 267.894 505.988 265.273C510.011 262.652 513.13 258.953 515.346 254.177C517.562 249.401 518.67 243.781 518.67 237.316C518.67 231.025 517.562 225.521 515.346 220.803C513.13 216.086 510.011 212.416 505.988 209.795C501.964 207.116 497.183 205.776 491.644 205.776C486.105 205.776 481.294 207.087 477.213 209.708C473.131 212.329 469.954 215.998 467.68 220.716C465.464 225.434 464.356 230.967 464.356 237.316C464.356 243.781 465.464 249.401 467.68 254.177C469.954 258.953 473.131 262.652 477.213 265.273C481.294 267.894 486.105 269.204 491.644 269.204Z" fill="url(#paint23_linear_1_13)"/>
<path d="M552.817 245.528H569.085C574.916 245.528 579.493 243.81 582.816 240.373C586.14 236.937 587.802 232.307 587.802 226.482C587.802 222.813 587.044 219.58 585.528 216.785C584.012 213.931 581.884 211.688 579.143 210.057C576.403 208.427 573.137 207.611 569.347 207.611H545.296V271.563H541.097V203.418H569.347C573.954 203.418 577.948 204.408 581.33 206.388C584.712 208.368 587.335 211.106 589.201 214.6C591.067 218.037 592 221.997 592 226.482C592 233.646 589.959 239.325 585.878 243.519C581.796 247.654 576.199 249.722 569.085 249.722H557.015V271.563H552.817V245.528Z" fill="url(#paint24_linear_1_13)"/>
<path fill-rule="evenodd" clip-rule="evenodd" d="M552.555 212.591H565.762C569.901 212.591 573.341 213.727 576.082 215.998C578.881 218.27 580.28 221.794 580.28 226.57C580.28 229.715 579.639 232.336 578.356 234.433C577.073 236.471 575.324 238.015 573.108 239.063C570.951 240.053 568.531 240.548 565.849 240.548H552.555V212.591ZM565.849 236.355C568.706 236.355 571.126 235.568 573.108 233.996C575.091 232.365 576.082 229.89 576.082 226.57C576.082 223.191 575.091 220.716 573.108 219.143C571.126 217.571 568.677 216.785 565.762 216.785H556.753V236.355H565.849Z" fill="url(#paint25_linear_1_13)"/>
<path d="M88.2544 340H62.9298C62.5313 340 62.1611 339.929 61.8195 339.787C61.4778 339.645 61.1789 339.453 60.9227 339.211C60.6807 338.955 60.4885 338.656 60.3461 338.315C60.2038 337.974 60.1326 337.604 60.1326 337.206V309.413H65.6844V334.454H88.2544V340Z" fill="url(#paint26_linear_1_13)"/>
<path d="M120.441 327.501H102.91V321.912H120.441V327.501Z" fill="url(#paint27_linear_1_13)"/>
<path d="M122.939 340H102.91C102.141 340 101.302 339.865 100.391 339.595C99.4795 339.325 98.6325 338.884 97.8496 338.272C97.0808 337.647 96.4331 336.843 95.9064 335.862C95.394 334.867 95.1377 333.651 95.1377 332.215V312.208C95.1377 311.824 95.2089 311.461 95.3513 311.12C95.4936 310.778 95.6858 310.48 95.9278 310.224C96.184 309.968 96.483 309.769 96.8246 309.627C97.1663 309.484 97.5364 309.413 97.935 309.413H122.939V314.959H100.689V332.215C100.689 332.94 100.882 333.494 101.266 333.878C101.65 334.262 102.213 334.454 102.953 334.454H122.939V340Z" fill="url(#paint28_linear_1_13)"/>
<path d="M159.055 309.413V314.959H146.819V340H141.268V314.959H129.011V309.413H159.055Z" fill="url(#paint29_linear_1_13)"/>
<path d="M168.564 321.443H164.678L166.643 310.693H171.896L168.564 321.443Z" fill="url(#paint30_linear_1_13)"/>
<path d="M208.78 330.999C208.78 332.094 208.637 333.082 208.353 333.964C208.082 334.831 207.719 335.599 207.264 336.267C206.808 336.936 206.274 337.504 205.662 337.974C205.05 338.443 204.417 338.827 203.762 339.125C203.107 339.424 202.438 339.645 201.755 339.787C201.085 339.929 200.452 340 199.854 340H178.437V334.454H199.854C200.922 334.454 201.747 334.141 202.331 333.516C202.929 332.89 203.228 332.051 203.228 330.999C203.228 330.487 203.15 330.018 202.993 329.591C202.836 329.165 202.609 328.795 202.31 328.482C202.025 328.169 201.669 327.927 201.242 327.757C200.829 327.586 200.367 327.501 199.854 327.501H187.085C186.188 327.501 185.22 327.344 184.181 327.032C183.142 326.705 182.174 326.186 181.277 325.475C180.395 324.764 179.654 323.832 179.056 322.68C178.473 321.529 178.181 320.121 178.181 318.457C178.181 316.793 178.473 315.393 179.056 314.255C179.654 313.103 180.395 312.172 181.277 311.461C182.174 310.736 183.142 310.217 184.181 309.904C185.22 309.577 186.188 309.413 187.085 309.413H205.982V314.959H187.085C186.032 314.959 185.206 315.279 184.608 315.919C184.025 316.559 183.733 317.405 183.733 318.457C183.733 319.524 184.025 320.37 184.608 320.995C185.206 321.607 186.032 321.912 187.085 321.912H199.897C200.495 321.927 201.128 322.012 201.797 322.168C202.466 322.311 203.128 322.538 203.783 322.851C204.452 323.164 205.086 323.562 205.683 324.045C206.281 324.515 206.808 325.083 207.264 325.752C207.733 326.42 208.103 327.188 208.374 328.055C208.644 328.923 208.78 329.904 208.78 330.999Z" fill="url(#paint31_linear_1_13)"/>
<path d="M263.736 337.206C263.736 337.604 263.665 337.974 263.523 338.315C263.38 338.656 263.181 338.955 262.925 339.211C262.683 339.453 262.391 339.645 262.049 339.787C261.708 339.929 261.337 340 260.939 340H240.91C240.397 340 239.842 339.943 239.244 339.829C238.661 339.701 238.077 339.509 237.493 339.253C236.924 338.998 236.376 338.67 235.849 338.272C235.322 337.86 234.853 337.369 234.44 336.801C234.041 336.218 233.721 335.549 233.479 334.796C233.237 334.028 233.116 333.167 233.116 332.215V317.199C233.116 316.687 233.173 316.139 233.287 315.556C233.415 314.959 233.607 314.376 233.863 313.807C234.12 313.224 234.454 312.67 234.867 312.144C235.28 311.617 235.771 311.155 236.34 310.757C236.924 310.345 237.593 310.018 238.347 309.776C239.102 309.534 239.956 309.413 240.91 309.413H263.48V314.959H240.91C240.184 314.959 239.629 315.151 239.244 315.535C238.86 315.919 238.668 316.488 238.668 317.241V332.215C238.668 332.926 238.86 333.48 239.244 333.878C239.643 334.262 240.198 334.454 240.91 334.454H258.184V327.501H243.408V321.912H260.939C261.337 321.912 261.708 321.991 262.049 322.147C262.391 322.289 262.683 322.488 262.925 322.744C263.181 323 263.38 323.299 263.523 323.64C263.665 323.967 263.736 324.323 263.736 324.707V337.206Z" fill="url(#paint32_linear_1_13)"/>
<path d="M297.759 327.501H280.228V321.912H297.759V327.501Z" fill="url(#paint33_linear_1_13)"/>
<path d="M300.257 340H280.228C279.46 340 278.62 339.865 277.709 339.595C276.798 339.325 275.951 338.884 275.168 338.272C274.399 337.647 273.751 336.843 273.224 335.862C272.712 334.867 272.456 333.651 272.456 332.215V312.208C272.456 311.824 272.527 311.461 272.669 311.12C272.812 310.778 273.004 310.48 273.246 310.224C273.502 309.968 273.801 309.769 274.143 309.627C274.484 309.484 274.854 309.413 275.253 309.413H300.257V314.959H278.008V332.215C278.008 332.94 278.2 333.494 278.584 333.878C278.968 334.262 279.531 334.454 280.271 334.454H300.257V340Z" fill="url(#paint34_linear_1_13)"/>
<path d="M336.373 314.959H324.138V340H318.586V314.959H306.329V309.413H336.373V314.959Z" fill="url(#paint35_linear_1_13)"/>
<path d="M387.55 314.959H375.315V340H369.763V314.959H357.506V309.413H387.55V314.959Z" fill="url(#paint36_linear_1_13)"/>
<path d="M419.886 327.501H402.355V321.912H419.886V327.501Z" fill="url(#paint37_linear_1_13)"/>
<path d="M422.384 340H402.355C401.586 340 400.746 339.865 399.835 339.595C398.924 339.325 398.077 338.884 397.294 338.272C396.526 337.647 395.878 336.843 395.351 335.862C394.839 334.867 394.583 333.651 394.583 332.215V312.208C394.583 311.824 394.654 311.461 394.796 311.12C394.938 310.778 395.131 310.48 395.373 310.224C395.629 309.968 395.928 309.769 396.269 309.627C396.611 309.484 396.981 309.413 397.38 309.413H422.384V314.959H400.134V332.215C400.134 332.94 400.326 333.494 400.711 333.878C401.095 334.262 401.657 334.454 402.398 334.454H422.384V340Z" fill="url(#paint38_linear_1_13)"/>
<path d="M458.03 340H438.001C437.488 340 436.933 339.943 436.335 339.829C435.752 339.701 435.168 339.509 434.584 339.253C434.015 338.998 433.467 338.67 432.94 338.272C432.413 337.86 431.944 337.369 431.531 336.801C431.132 336.218 430.812 335.549 430.57 334.796C430.328 334.028 430.207 333.167 430.207 332.215V317.199C430.207 316.687 430.264 316.139 430.378 315.556C430.506 314.959 430.698 314.376 430.954 313.807C431.21 313.224 431.545 312.67 431.958 312.144C432.371 311.617 432.862 311.155 433.431 310.757C434.015 310.345 434.684 310.018 435.438 309.776C436.193 309.534 437.047 309.413 438.001 309.413H458.03V314.959H438.001C437.275 314.959 436.72 315.151 436.335 315.535C435.951 315.919 435.759 316.488 435.759 317.241V332.215C435.759 332.926 435.951 333.48 436.335 333.878C436.734 334.262 437.289 334.454 438.001 334.454H458.03V340Z" fill="url(#paint39_linear_1_13)"/>
<path d="M471.938 321.912H491.433V309.413H496.985V340H491.433V327.501H471.938V340H466.386V309.413H471.938V321.912Z" fill="url(#paint40_linear_1_13)"/>
<path d="M535.727 319.652C535.727 320.917 535.563 322.048 535.236 323.043C534.923 324.038 534.503 324.92 533.976 325.688C533.449 326.441 532.83 327.088 532.118 327.629C531.421 328.169 530.695 328.617 529.94 328.973C529.186 329.314 528.417 329.563 527.634 329.719C526.866 329.876 526.14 329.954 525.456 329.954H523.214V340H517.62V329.954H515.399C514.716 329.954 513.983 329.876 513.2 329.719C512.431 329.563 511.662 329.314 510.894 328.973C510.139 328.617 509.413 328.169 508.716 327.629C508.018 327.088 507.399 326.441 506.858 325.688C506.331 324.92 505.904 324.038 505.577 323.043C505.264 322.033 505.107 320.903 505.107 319.652V309.413H510.659V319.652C510.659 320.377 510.773 321.031 511 321.614C511.228 322.183 511.548 322.673 511.961 323.086C512.374 323.498 512.872 323.818 513.456 324.045C514.054 324.259 514.716 324.365 515.442 324.365H525.456C525.983 324.28 526.524 324.173 527.079 324.045C527.634 323.903 528.14 323.669 528.595 323.342C529.051 323.015 529.428 322.559 529.727 321.976C530.026 321.393 530.175 320.618 530.175 319.652V309.413H535.727V319.652Z" fill="url(#paint41_linear_1_13)"/>
<defs>
<linearGradient id="paint0_linear_1_13" x1="-18.0488" y1="168.046" x2="592" y2="168.046" gradientUnits="userSpaceOnUse">
<stop stop-color="#F5793B"/>
<stop offset="1" stop-color="#FFBC59"/>
</linearGradient>
<linearGradient id="paint1_linear_1_13" x1="-18.0488" y1="168.046" x2="592" y2="168.046" gradientUnits="userSpaceOnUse">
<stop stop-color="#F5793B"/>
<stop offset="1" stop-color="#FFBC59"/>
</linearGradient>
<linearGradient id="paint2_linear_1_13" x1="-18.0488" y1="168.046" x2="592" y2="168.046" gradientUnits="userSpaceOnUse">
<stop stop-color="#F5793B"/>
<stop offset="1" stop-color="#FFBC59"/>
</linearGradient>
<linearGradient id="paint3_linear_1_13" x1="-18.0488" y1="168.046" x2="592" y2="168.046" gradientUnits="userSpaceOnUse">
<stop stop-color="#F5793B"/>
<stop offset="1" stop-color="#FFBC59"/>
</linearGradient>
<linearGradient id="paint4_linear_1_13" x1="-18.0488" y1="168.046" x2="592" y2="168.046" gradientUnits="userSpaceOnUse">
<stop stop-color="#F5793B"/>
<stop offset="1" stop-color="#FFBC59"/>
</linearGradient>
<linearGradient id="paint5_linear_1_13" x1="-18.0488" y1="168.046" x2="592" y2="168.046" gradientUnits="userSpaceOnUse">
<stop stop-color="#F5793B"/>
<stop offset="1" stop-color="#FFBC59"/>
</linearGradient>
<linearGradient id="paint6_linear_1_13" x1="-18.0488" y1="168.046" x2="592" y2="168.046" gradientUnits="userSpaceOnUse">
<stop stop-color="#F5793B"/>
<stop offset="1" stop-color="#FFBC59"/>
</linearGradient>
<linearGradient id="paint7_linear_1_13" x1="-18.0488" y1="168.046" x2="592" y2="168.046" gradientUnits="userSpaceOnUse">
<stop stop-color="#F5793B"/>
<stop offset="1" stop-color="#FFBC59"/>
</linearGradient>
<linearGradient id="paint8_linear_1_13" x1="-18.0488" y1="168.046" x2="592" y2="168.046" gradientUnits="userSpaceOnUse">
<stop stop-color="#F5793B"/>
<stop offset="1" stop-color="#FFBC59"/>
</linearGradient>
<linearGradient id="paint9_linear_1_13" x1="-18.0488" y1="168.046" x2="592" y2="168.046" gradientUnits="userSpaceOnUse">
<stop stop-color="#F5793B"/>
<stop offset="1" stop-color="#FFBC59"/>
</linearGradient>
<linearGradient id="paint10_linear_1_13" x1="-18.0488" y1="168.046" x2="592" y2="168.046" gradientUnits="userSpaceOnUse">
<stop stop-color="#F5793B"/>
<stop offset="1" stop-color="#FFBC59"/>
</linearGradient>
<linearGradient id="paint11_linear_1_13" x1="-18.0488" y1="168.046" x2="592" y2="168.046" gradientUnits="userSpaceOnUse">
<stop stop-color="#F5793B"/>
<stop offset="1" stop-color="#FFBC59"/>
</linearGradient>
<linearGradient id="paint12_linear_1_13" x1="-18.0488" y1="168.046" x2="592" y2="168.046" gradientUnits="userSpaceOnUse">
<stop stop-color="#F5793B"/>
<stop offset="1" stop-color="#FFBC59"/>
</linearGradient>
<linearGradient id="paint13_linear_1_13" x1="-18.0488" y1="168.046" x2="592" y2="168.046" gradientUnits="userSpaceOnUse">
<stop stop-color="#F5793B"/>
<stop offset="1" stop-color="#FFBC59"/>
</linearGradient>
<linearGradient id="paint14_linear_1_13" x1="-18.0488" y1="168.046" x2="592" y2="168.046" gradientUnits="userSpaceOnUse">
<stop stop-color="#F5793B"/>
<stop offset="1" stop-color="#FFBC59"/>
</linearGradient>
<linearGradient id="paint15_linear_1_13" x1="-18.0488" y1="168.046" x2="592" y2="168.046" gradientUnits="userSpaceOnUse">
<stop stop-color="#F5793B"/>
<stop offset="1" stop-color="#FFBC59"/>
</linearGradient>
<linearGradient id="paint16_linear_1_13" x1="-18.0488" y1="168.046" x2="592" y2="168.046" gradientUnits="userSpaceOnUse">
<stop stop-color="#F5793B"/>
<stop offset="1" stop-color="#FFBC59"/>
</linearGradient>
<linearGradient id="paint17_linear_1_13" x1="-18.0488" y1="168.046" x2="592" y2="168.046" gradientUnits="userSpaceOnUse">
<stop stop-color="#F5793B"/>
<stop offset="1" stop-color="#FFBC59"/>
</linearGradient>
<linearGradient id="paint18_linear_1_13" x1="-18.0488" y1="168.046" x2="592" y2="168.046" gradientUnits="userSpaceOnUse">
<stop stop-color="#F5793B"/>
<stop offset="1" stop-color="#FFBC59"/>
</linearGradient>
<linearGradient id="paint19_linear_1_13" x1="-18.0488" y1="168.046" x2="592" y2="168.046" gradientUnits="userSpaceOnUse">
<stop stop-color="#F5793B"/>
<stop offset="1" stop-color="#FFBC59"/>
</linearGradient>
<linearGradient id="paint20_linear_1_13" x1="-18.0488" y1="168.046" x2="592" y2="168.046" gradientUnits="userSpaceOnUse">
<stop stop-color="#F5793B"/>
<stop offset="1" stop-color="#FFBC59"/>
</linearGradient>
<linearGradient id="paint21_linear_1_13" x1="-18.0488" y1="168.046" x2="592" y2="168.046" gradientUnits="userSpaceOnUse">
<stop stop-color="#F5793B"/>
<stop offset="1" stop-color="#FFBC59"/>
</linearGradient>
<linearGradient id="paint22_linear_1_13" x1="-18.0488" y1="168.046" x2="592" y2="168.046" gradientUnits="userSpaceOnUse">
<stop stop-color="#F5793B"/>
<stop offset="1" stop-color="#FFBC59"/>
</linearGradient>
<linearGradient id="paint23_linear_1_13" x1="-18.0488" y1="168.046" x2="592" y2="168.046" gradientUnits="userSpaceOnUse">
<stop stop-color="#F5793B"/>
<stop offset="1" stop-color="#FFBC59"/>
</linearGradient>
<linearGradient id="paint24_linear_1_13" x1="-18.0488" y1="168.046" x2="592" y2="168.046" gradientUnits="userSpaceOnUse">
<stop stop-color="#F5793B"/>
<stop offset="1" stop-color="#FFBC59"/>
</linearGradient>
<linearGradient id="paint25_linear_1_13" x1="-18.0488" y1="168.046" x2="592" y2="168.046" gradientUnits="userSpaceOnUse">
<stop stop-color="#F5793B"/>
<stop offset="1" stop-color="#FFBC59"/>
</linearGradient>
<linearGradient id="paint26_linear_1_13" x1="-18.0488" y1="168.046" x2="592" y2="168.046" gradientUnits="userSpaceOnUse">
<stop stop-color="#F5793B"/>
<stop offset="1" stop-color="#FFBC59"/>
</linearGradient>
<linearGradient id="paint27_linear_1_13" x1="-18.0488" y1="168.046" x2="592" y2="168.046" gradientUnits="userSpaceOnUse">
<stop stop-color="#F5793B"/>
<stop offset="1" stop-color="#FFBC59"/>
</linearGradient>
<linearGradient id="paint28_linear_1_13" x1="-18.0488" y1="168.046" x2="592" y2="168.046" gradientUnits="userSpaceOnUse">
<stop stop-color="#F5793B"/>
<stop offset="1" stop-color="#FFBC59"/>
</linearGradient>
<linearGradient id="paint29_linear_1_13" x1="-18.0488" y1="168.046" x2="592" y2="168.046" gradientUnits="userSpaceOnUse">
<stop stop-color="#F5793B"/>
<stop offset="1" stop-color="#FFBC59"/>
</linearGradient>
<linearGradient id="paint30_linear_1_13" x1="-18.0488" y1="168.046" x2="592" y2="168.046" gradientUnits="userSpaceOnUse">
<stop stop-color="#F5793B"/>
<stop offset="1" stop-color="#FFBC59"/>
</linearGradient>
<linearGradient id="paint31_linear_1_13" x1="-18.0488" y1="168.046" x2="592" y2="168.046" gradientUnits="userSpaceOnUse">
<stop stop-color="#F5793B"/>
<stop offset="1" stop-color="#FFBC59"/>
</linearGradient>
<linearGradient id="paint32_linear_1_13" x1="-18.0488" y1="168.046" x2="592" y2="168.046" gradientUnits="userSpaceOnUse">
<stop stop-color="#F5793B"/>
<stop offset="1" stop-color="#FFBC59"/>
</linearGradient>
<linearGradient id="paint33_linear_1_13" x1="-18.0488" y1="168.046" x2="592" y2="168.046" gradientUnits="userSpaceOnUse">
<stop stop-color="#F5793B"/>
<stop offset="1" stop-color="#FFBC59"/>
</linearGradient>
<linearGradient id="paint34_linear_1_13" x1="-18.0488" y1="168.046" x2="592" y2="168.046" gradientUnits="userSpaceOnUse">
<stop stop-color="#F5793B"/>
<stop offset="1" stop-color="#FFBC59"/>
</linearGradient>
<linearGradient id="paint35_linear_1_13" x1="-18.0488" y1="168.046" x2="592" y2="168.046" gradientUnits="userSpaceOnUse">
<stop stop-color="#F5793B"/>
<stop offset="1" stop-color="#FFBC59"/>
</linearGradient>
<linearGradient id="paint36_linear_1_13" x1="-18.0488" y1="168.046" x2="592" y2="168.046" gradientUnits="userSpaceOnUse">
<stop stop-color="#F5793B"/>
<stop offset="1" stop-color="#FFBC59"/>
</linearGradient>
<linearGradient id="paint37_linear_1_13" x1="-18.0488" y1="168.046" x2="592" y2="168.046" gradientUnits="userSpaceOnUse">
<stop stop-color="#F5793B"/>
<stop offset="1" stop-color="#FFBC59"/>
</linearGradient>
<linearGradient id="paint38_linear_1_13" x1="-18.0488" y1="168.046" x2="592" y2="168.046" gradientUnits="userSpaceOnUse">
<stop stop-color="#F5793B"/>
<stop offset="1" stop-color="#FFBC59"/>
</linearGradient>
<linearGradient id="paint39_linear_1_13" x1="-18.0488" y1="168.046" x2="592" y2="168.046" gradientUnits="userSpaceOnUse">
<stop stop-color="#F5793B"/>
<stop offset="1" stop-color="#FFBC59"/>
</linearGradient>
<linearGradient id="paint40_linear_1_13" x1="-18.0488" y1="168.046" x2="592" y2="168.046" gradientUnits="userSpaceOnUse">
<stop stop-color="#F5793B"/>
<stop offset="1" stop-color="#FFBC59"/>
</linearGradient>
<linearGradient id="paint41_linear_1_13" x1="-18.0488" y1="168.046" x2="592" y2="168.046" gradientUnits="userSpaceOnUse">
<stop stop-color="#F5793B"/>
<stop offset="1" stop-color="#FFBC59"/>
</linearGradient>
</defs>
</svg>
