<svg width="88" height="123" viewBox="0 0 88 123" fill="none" xmlns="http://www.w3.org/2000/svg">
<path fill-rule="evenodd" clip-rule="evenodd" d="M52.5642 7.53887L52.6003 115.876L82.1927 112.15V11.4185L52.5642 7.53887ZM80.5864 29.7558L54.8861 28.9563V31.5034L80.5967 31.8109L80.5864 29.7558ZM73.2501 49.7433C72.3028 47.2064 70.6657 45.756 68.9667 45.7355C67.3707 45.7099 65.7284 46.945 64.5495 49.7227L55.0457 50.0713L55.0663 57.2719L64.8893 56.9439C66.2175 61.4795 72.0505 61.9766 73.2192 56.6466L80.4577 56.3391L80.2878 49.7842L73.2501 49.7433ZM63.6691 111.146V71.4681L56.1732 71.8679L56.1938 112.038L63.6691 111.146Z" fill="#F7651C"/>
<path fill-rule="evenodd" clip-rule="evenodd" d="M47.7402 0L0 17.7376V107.041L48.08 123L88 117.701L87.9897 114.636V6.06287L47.7402 0ZM43.8172 117.562L43.9202 5.07888L2.55871 20.3155L2.69256 104.612L43.8172 117.562ZM83.8144 10.1167L50.8653 5.66313L50.8447 117.665L83.8144 113.585V10.1167Z" fill="url(#paint0_linear_12_124)"/>
<path fill-rule="evenodd" clip-rule="evenodd" d="M41.4851 8.88675L24.7016 14.9138V40.1493L41.5829 37.9865L41.4851 8.88675ZM36.3882 17.0252C35.6939 16.3234 34.7519 15.9189 33.7626 15.8977C31.487 15.8772 29.2733 18.0041 28.3208 20.1054C26.9874 23.042 26.0195 27.798 27.7957 30.7705C28.0943 30.7193 28.2539 30.5501 28.2848 30.2836C28.3518 29.7433 28.2051 29.1971 28.0593 28.6548C27.97 28.3226 27.8812 27.9918 27.842 27.6647C27.7347 26.9164 27.7054 26.159 27.7545 25.4046C27.9223 23.7456 28.3569 22.1242 29.0416 20.6025C30.6685 17.589 34.0715 15.8978 36.4655 19.1265C38.4321 21.7813 38.4321 25.8505 37.3458 28.864C36.7949 30.4015 35.8271 32.1286 34.3701 32.9794C32.8616 33.8557 31.5179 33.3996 30.0507 32.7744L29.6491 33.825L29.6594 33.8353C30.0404 34.4913 31.3944 34.8346 32.0739 34.8961C35.8888 35.2344 37.9945 30.7192 38.6535 27.6647C39.3897 24.2515 39.122 19.598 36.3882 17.0252ZM33.4434 22.1605C33.2692 22.0949 33.0839 22.0636 32.8977 22.0683C32.5989 22.0793 32.3068 22.1642 32.0442 22.3065C31.7816 22.4487 31.5556 22.6496 31.3841 22.8934C30.9758 23.53 30.7031 24.2433 30.5827 24.989C30.4622 25.7348 30.4967 26.4972 30.6839 27.2291C31.281 26.544 31.7359 25.748 32.0225 24.887C32.213 24.3489 32.6454 24.19 33.1705 24.4616C33.3919 24.928 33.6081 25.3944 33.4022 25.9479C33.2736 26.2943 32.981 26.6269 32.6791 26.9701C32.1593 27.561 31.6119 28.1832 31.8268 28.9614V28.946C32.6609 28.946 33.5103 28.9153 34.0097 28.1414C34.957 26.691 35.6263 22.9907 33.4434 22.1605ZM32.1924 26.2246H32.1821H32.1769C32.0317 26.3164 31.9087 26.4389 31.8165 26.5834L28.3311 31.2164C28.2127 31.3753 28.1046 31.5649 28.2024 31.7596C28.4179 32.256 28.6965 32.7227 29.0313 33.1485C29.0486 33.1657 29.074 33.1733 29.1092 33.1838C29.1369 33.1921 29.1707 33.2022 29.2115 33.2202C29.6916 32.14 30.1671 31.062 30.6418 29.9858L30.6423 29.9847C31.165 28.7995 31.6869 27.6164 32.213 26.4347C32.2438 26.3681 32.2438 26.2964 32.1924 26.2246Z" fill="#DDA34C"/>
<path fill-rule="evenodd" clip-rule="evenodd" d="M22.8997 15.8209L4.17528 21.9043V42.5221L23.0181 40.4311L22.8997 15.8209ZM13.2826 26.6654L15.3111 21.0381L12.6031 21.812L10.3069 30.1862L11.975 29.3919L9.39051 39.1704L9.40081 39.1806L15.3265 25.5737L13.2826 26.6654Z" fill="#F5793B"/>
<path fill-rule="evenodd" clip-rule="evenodd" d="M22.9614 42.968L4.28339 44.7054L4.4121 77.203L22.9151 78.2639L22.9614 42.968ZM12.4743 51.1731L10.5798 49.5383L10.1422 50.0405L12.253 51.8496L20.8506 51.5319L20.7992 50.8759L12.4743 51.1731ZM9.65706 50.6929C9.54706 50.653 9.43025 50.6351 9.31329 50.6401C9.13656 50.6514 8.96711 50.7144 8.8261 50.821C8.68509 50.9276 8.57877 51.0733 8.52045 51.2397L6.11619 51.3422L6.14708 51.9982L8.55134 51.8958C8.62435 52.0548 8.74297 52.1888 8.89229 52.2809C9.04161 52.373 9.21495 52.4191 9.39051 52.4134C9.50747 52.4083 9.62229 52.3804 9.72841 52.3312C9.83453 52.282 9.92987 52.2124 10.009 52.1265C10.0881 52.0406 10.1495 51.94 10.1895 51.8305C10.2296 51.721 10.2476 51.6047 10.2426 51.4883C10.2375 51.3719 10.2094 51.2576 10.16 51.1519C10.1105 51.0463 10.0407 50.9514 9.95439 50.8726C9.8681 50.7939 9.76706 50.7328 9.65706 50.6929ZM19.9432 52.7207C19.8335 52.6795 19.7168 52.6604 19.5996 52.6645V52.6696C19.4176 52.6756 19.2417 52.7367 19.0955 52.8448C18.9492 52.9528 18.8395 53.1027 18.781 53.2744L16.1657 53.3461C16.1021 53.1694 15.9845 53.017 15.8293 52.9103C15.6742 52.8037 15.4893 52.7482 15.3008 52.7516V52.7619C15.184 52.7652 15.0691 52.7914 14.9626 52.8392C14.8561 52.8869 14.7601 52.9551 14.6802 53.0399C14.6003 53.1247 14.538 53.2244 14.4969 53.3332C14.4559 53.4421 14.4369 53.5579 14.441 53.6741C14.4391 53.8776 14.5083 54.0754 14.6369 54.2336C14.7655 54.3918 14.9453 54.5006 15.1456 54.5412C15.346 54.5818 15.5542 54.5517 15.7347 54.4562C15.9152 54.3606 16.0566 54.2055 16.1348 54.0175L18.8274 53.9406C18.9018 54.0938 19.0192 54.2222 19.1654 54.3104C19.3115 54.3987 19.4802 54.4429 19.6511 54.4377C19.7683 54.4351 19.8838 54.4093 19.9909 54.3619C20.098 54.3145 20.1946 54.2464 20.275 54.1615C20.3555 54.0767 20.4182 53.9767 20.4596 53.8676C20.5009 53.7584 20.5201 53.6421 20.516 53.5255C20.5133 53.4088 20.4875 53.2939 20.4398 53.1873C20.3922 53.0806 20.3238 52.9845 20.2385 52.9044C20.1533 52.8243 20.0529 52.7619 19.9432 52.7207ZM20.9845 64.9799L13.3907 53.9611L6.13678 54.3865L6.15738 55.022L12.9634 54.6069L20.4182 65.3284L20.9845 64.9799ZM21.0772 55.719L21.1184 54.7658L19.8776 56.293C19.7105 56.2357 19.5301 56.2295 19.3594 56.2752C19.1888 56.3209 19.0357 56.4163 18.92 56.5493C18.8433 56.6359 18.7846 56.7368 18.7472 56.8462C18.7098 56.9555 18.6945 57.0712 18.7021 57.1864C18.7098 57.3017 18.7403 57.4143 18.7918 57.5178C18.8433 57.6213 18.9149 57.7136 19.0024 57.7895C19.1806 57.9437 19.4131 58.0212 19.6486 58.0048C19.8842 57.9885 20.1036 57.8797 20.2586 57.7024V57.7126C20.3745 57.579 20.4477 57.4139 20.4688 57.2386C20.4899 57.0633 20.4579 56.8857 20.377 56.7286L21.0772 55.719ZM17.9488 56.4676C17.8192 56.4022 17.6752 56.3704 17.53 56.375C17.3524 56.3788 17.1801 56.4359 17.0357 56.539C16.8432 56.6734 16.7119 56.8781 16.6704 57.1086C16.6289 57.339 16.6807 57.5764 16.8144 57.769L16.8247 57.7588C16.9252 57.9038 17.0677 58.0148 17.2333 58.0771C17.3989 58.1394 17.5796 58.1499 17.7514 58.1073L21.0154 62.8069L21.0051 61.7665L18.2919 57.7383C18.4824 57.441 18.4824 57.0566 18.2713 56.7491C18.1893 56.6298 18.0783 56.533 17.9488 56.4676ZM13.4666 56.7926C13.3567 56.7524 13.24 56.7342 13.123 56.7389C12.946 56.7488 12.7759 56.8105 12.6339 56.9163C12.492 57.022 12.3845 57.1671 12.325 57.3334L6.2449 57.6409L6.27579 58.2969L12.3559 57.9894C12.4282 58.1494 12.5465 58.2844 12.6958 58.3775C12.8452 58.4706 13.019 58.5174 13.1951 58.5121C13.3121 58.5074 13.427 58.4798 13.5332 58.4309C13.6395 58.382 13.735 58.3127 13.8143 58.2271C13.8937 58.1414 13.9553 58.041 13.9957 57.9317C14.0361 57.8223 14.0545 57.7061 14.0497 57.5896C14.045 57.4732 14.0173 57.3588 13.9681 57.2531C13.919 57.1473 13.8494 57.0522 13.7634 56.9732C13.6773 56.8942 13.5765 56.8328 13.4666 56.7926ZM17.0049 62.7505L14.9816 60.2393L6.33757 60.4494L6.35816 61.1156L14.7293 60.9106L16.5878 63.2681C16.5673 63.3553 16.5467 63.4424 16.5467 63.5244C16.548 63.7605 16.6428 63.9865 16.8105 64.1535C16.9782 64.3204 17.2053 64.4148 17.4425 64.4161C17.6787 64.4134 17.9045 64.3185 18.0711 64.1517C18.2377 63.9849 18.3318 63.7596 18.3331 63.5244C18.3331 63.0375 17.9316 62.6377 17.4425 62.6377C17.2891 62.6356 17.1379 62.6745 17.0049 62.7505ZM9.24121 62.4737H9.23091L9.24121 62.4789C9.03215 62.5031 8.83941 62.6032 8.69992 62.7601C8.56043 62.917 8.484 63.1196 8.48528 63.3291C8.48655 63.5386 8.56544 63.7403 8.70683 63.8955C8.84823 64.0507 9.04217 64.1485 9.25151 64.1701C9.43956 64.1701 9.62221 64.1075 9.7705 63.9924C9.91879 63.8773 10.0242 63.7162 10.0701 63.5346L14.8014 63.673L16.6548 65.9536C16.629 66.0369 16.6134 66.1229 16.6084 66.2099C16.6098 66.446 16.7046 66.672 16.8723 66.839C17.04 67.0059 17.2671 67.1003 17.5042 67.1016C17.7414 67.1003 17.9685 67.0059 18.1362 66.839C18.3039 66.672 18.3987 66.446 18.4 66.2099C18.4 65.723 17.9933 65.3181 17.5042 65.3181C17.3504 65.3175 17.1992 65.3582 17.0666 65.436L15.0588 63.0067L9.95168 62.8684C9.80752 62.6378 9.54496 62.4789 9.24121 62.4737ZM7.70187 63.96C7.46504 63.5961 7.23852 63.5244 6.92962 63.5244L6.93477 63.5295C6.85177 63.5295 6.76332 63.5338 6.66789 63.5385C6.55614 63.544 6.43482 63.55 6.30153 63.55V64.2572H7.18189L10.7548 69.9409C11.1769 70.5958 11.4559 70.582 12.0757 70.5513C12.2271 70.5439 12.3988 70.5354 12.5979 70.5354H14.6315C14.8509 70.5354 14.9546 70.6731 15.064 70.8184C15.1934 70.9902 15.3307 71.1726 15.6766 71.1504C16.2481 70.6071 16.2481 69.9101 15.6766 69.3669C15.3376 69.3357 15.1756 69.4703 15.0065 69.6106C14.8419 69.7474 14.6706 69.8896 14.3226 69.8896C13.643 69.8896 12.9634 69.8896 12.2942 69.8435C11.3572 69.782 11.2285 69.7154 10.7394 68.9313C10.3996 68.3931 10.0598 67.8396 9.7303 67.2913C9.60764 67.0865 9.48534 66.8816 9.36306 66.6767C8.8181 65.7636 8.27372 64.8516 7.70187 63.96ZM14.9945 65.3226C14.8852 65.2817 14.7688 65.2628 14.6521 65.2669H14.6572C14.4743 65.2719 14.2973 65.3325 14.1501 65.4406C14.0028 65.5487 13.8923 65.6991 13.8335 65.8716L11.5477 65.9229C11.4844 65.747 11.3675 65.5952 11.2134 65.4886C11.0593 65.382 10.8755 65.326 10.6879 65.3284V65.3386C10.5711 65.3419 10.4562 65.3682 10.3497 65.4159C10.2432 65.4636 10.1472 65.5318 10.0673 65.6166C9.98737 65.7014 9.9251 65.8011 9.88406 65.91C9.84301 66.0188 9.824 66.1347 9.82812 66.2509C9.83529 66.4489 9.90928 66.6387 10.0381 66.7898C10.167 66.9408 10.3432 67.0442 10.5384 67.0833C10.7335 67.1224 10.9362 67.0949 11.1137 67.0052C11.2912 66.9155 11.4332 66.769 11.5168 66.5891L13.8798 66.5379C13.9546 66.6919 14.0728 66.8208 14.22 66.9091C14.3672 66.9974 14.537 67.0411 14.7087 67.035C14.8255 67.0317 14.9404 67.0054 15.0469 66.9577C15.1534 66.91 15.2494 66.8418 15.3293 66.757C15.4092 66.6722 15.4715 66.5725 15.5125 66.4637C15.5536 66.3548 15.5726 66.2389 15.5685 66.1227C15.5652 66.0065 15.5388 65.8921 15.4908 65.7861C15.4429 65.6801 15.3744 65.5845 15.2892 65.505C15.204 65.4254 15.1039 65.3634 14.9945 65.3226ZM19.9754 66.2625C19.863 66.2156 19.7421 66.1924 19.6202 66.1945C19.4592 66.2005 19.303 66.25 19.1682 66.3378C19.0335 66.4256 18.9253 66.5484 18.8554 66.6928C18.7855 66.8372 18.7565 66.9979 18.7715 67.1576C18.7865 67.3172 18.845 67.4697 18.9406 67.5987L16.1451 71.8371L16.8453 71.832L19.5018 67.937C19.6223 67.9554 19.7453 67.9487 19.863 67.9173C19.9807 67.8859 20.0906 67.8305 20.1857 67.7546C20.2808 67.6788 20.3591 67.5841 20.4155 67.4765C20.4719 67.369 20.5053 67.2509 20.5136 67.1299C20.5218 67.0088 20.5047 66.8874 20.4633 66.7733C20.4219 66.6592 20.3572 66.5548 20.2732 66.4669C20.1893 66.379 20.0878 66.3094 19.9754 66.2625ZM7.6348 66.5315C7.48866 66.3743 7.28831 66.2777 7.07377 66.2611C6.85924 66.2777 6.65889 66.3743 6.51275 66.5315C6.36661 66.6888 6.28544 66.8951 6.28544 67.1093C6.28544 67.3235 6.36661 67.5299 6.51275 67.6871C6.65889 67.8443 6.85924 67.9409 7.07377 67.9575C7.28831 67.9409 7.48866 67.8443 7.6348 67.6871C7.78094 67.5299 7.86211 67.3235 7.86211 67.1093C7.86211 66.8951 7.78094 66.6888 7.6348 66.5315ZM9.581 69.4079C9.40596 69.2336 9.17943 69.1465 8.94776 69.1465V69.1516C8.83198 69.1507 8.71718 69.1728 8.61018 69.2169C8.50317 69.2609 8.40613 69.3258 8.32481 69.4079C8.22091 69.5163 8.14495 69.6482 8.10343 69.7923L7.11496 69.7615L6.0853 71.1247L6.57439 71.586L7.41356 70.4175L8.17036 70.4482C8.21219 70.5264 8.26412 70.5988 8.32481 70.6635C8.40639 70.7472 8.50402 70.8137 8.61191 70.8592C8.7198 70.9046 8.83576 70.928 8.9529 70.928C9.07005 70.928 9.18601 70.9046 9.2939 70.8592C9.40179 70.8137 9.49942 70.7472 9.581 70.6635C9.66522 70.5818 9.73216 70.4842 9.77786 70.3764C9.82357 70.2686 9.84712 70.1527 9.84712 70.0357C9.84712 69.9186 9.82357 69.8028 9.77786 69.695C9.73216 69.5871 9.66522 69.4895 9.581 69.4079ZM20.7734 70.7353C20.9793 70.4739 20.9588 70.2074 20.9279 69.9101C20.8278 69.9101 20.6953 69.8963 20.5508 69.8812C20.3904 69.8645 20.2151 69.8462 20.0527 69.8435C19.8955 69.8291 19.7372 69.8501 19.5893 69.905C19.5383 69.9763 19.4593 70.0762 19.3657 70.1945C18.9683 70.6969 18.3091 71.5304 18.4258 71.9037C18.5188 71.8889 18.6695 71.9188 18.8346 71.9515C19.1815 72.0202 19.5916 72.1015 19.6614 71.8064C19.6224 71.6098 19.4858 71.5942 19.349 71.5786C19.2325 71.5653 19.1158 71.552 19.059 71.4271L19.6923 70.5559C19.8472 70.5691 20.0011 70.606 20.1554 70.6429C20.3599 70.692 20.565 70.7411 20.7734 70.7353Z" fill="#FFBC59"/>
<path fill-rule="evenodd" clip-rule="evenodd" d="M41.2946 40.7437L24.6913 42.7938L24.6604 78.3818L41.1659 78.8942L41.2946 40.7437ZM36.6354 54.8221C36.4449 54.0892 36.3367 53.8894 35.5491 53.7049C35.1947 53.6237 35.1632 53.2136 35.1298 52.7803C35.1084 52.5023 35.0863 52.2146 34.9776 51.9982C34.3359 52.3222 34.3471 53.0118 34.3573 53.6366C34.3586 53.7136 34.3598 53.7896 34.3598 53.8638C33.7643 54.0016 33.7186 53.6025 33.6673 53.1531C33.6232 52.7673 33.5749 52.3445 33.1705 52.193C32.8102 52.4544 32.7535 52.8695 32.7638 53.2846C32.7654 53.3532 32.7692 53.4171 32.7728 53.476C32.7925 53.805 32.8032 53.9832 32.3623 53.9919C31.9643 54.0021 31.9812 53.5648 31.9979 53.1341C32.0147 52.7012 32.0312 52.2749 31.626 52.316C31.3995 52.5066 31.3559 52.8908 31.3152 53.2487C31.2541 53.7856 31.1998 54.2635 30.5449 53.9406C30.5444 53.9175 30.5442 53.8932 30.5442 53.8679C30.5441 53.8197 30.5447 53.7676 30.5454 53.7134C30.5515 53.1918 30.5604 52.4413 30.0095 52.4236C29.6697 52.8695 29.6594 53.3871 29.6697 53.9304L29.68 53.9406C29.5719 53.9944 29.4667 54.0422 29.3663 54.0878C28.8353 54.3288 28.4343 54.5108 28.4084 55.2219C28.3826 55.8061 28.3208 55.8369 27.7751 56.0521C27.4662 56.1649 27.3427 56.4416 27.3632 56.7594C27.3854 57.1592 27.6787 57.2059 27.9451 57.2484C28.1738 57.2848 28.3826 57.3181 28.3826 57.5691C28.3826 57.6734 28.3897 57.7636 28.3958 57.8409C28.4181 58.1246 28.4268 58.2354 28.0222 58.2354C27.9742 58.2354 27.9303 58.235 27.8902 58.2347C27.6795 58.2331 27.574 58.2323 27.5216 58.2847C27.4689 58.3372 27.4696 58.4431 27.4709 58.6552L27.4712 58.7101L27.4714 58.7735C27.4714 59.3573 27.5939 59.375 27.8745 59.4157C28.0127 59.4357 28.1892 59.4613 28.4084 59.5627C28.4049 59.6381 28.4114 59.7223 28.4181 59.8081C28.4412 60.1074 28.4659 60.4255 28.0737 60.4494L27.9882 60.4552C27.7224 60.4733 27.6025 60.4814 27.5383 60.5454C27.4856 60.5979 27.4703 60.688 27.4426 60.8521C27.4324 60.9123 27.4205 60.9824 27.4044 61.0644C27.3174 61.5262 27.666 61.5997 28.0625 61.6833L28.1406 61.6999C28.5525 61.7972 28.501 62.3713 28.362 62.7505C28.2357 62.8031 28.1042 62.7628 27.9698 62.7217C27.8032 62.6706 27.6321 62.6182 27.4611 62.7402C27.4108 62.7903 27.4361 63.0488 27.4518 63.209C27.4569 63.2619 27.4611 63.3041 27.4611 63.3245C27.4611 63.7503 27.7032 63.7673 27.9426 63.7842C28.1729 63.8003 28.4008 63.8163 28.4084 64.1957C28.4187 64.903 28.5113 65.4463 29.2578 65.6308C29.7167 65.7572 29.7787 66.2619 29.8386 66.75C29.8662 66.9739 29.8932 67.1944 29.958 67.3733C30.4728 67.0145 30.5037 66.7275 30.5243 66.0766C30.5346 65.7537 30.6633 65.5744 31.0237 65.6666C31.3118 65.7527 31.2939 65.9729 31.2751 66.2045C31.2704 66.2626 31.2657 66.3214 31.2657 66.379C31.2657 66.7172 31.3532 67.568 31.9092 67.2913C31.8699 66.7737 31.9222 66.2533 32.0637 65.7537C32.725 65.9112 32.7261 65.9398 32.748 66.4969C32.7496 66.5383 32.7514 66.5826 32.7535 66.6301C32.7793 66.9786 32.8977 67.2861 33.2066 67.4911C33.6626 67.0797 33.6891 66.4893 33.7147 65.9174L33.7148 65.9162L33.7185 65.8348L33.7214 65.7742C34.298 65.7332 34.4679 65.846 34.4679 66.3483C34.4679 66.393 34.4607 66.4755 34.452 66.5749C34.4278 66.8512 34.3922 67.2585 34.4679 67.3528C34.624 67.3045 34.7395 67.3525 34.8282 67.3894C34.9559 67.4426 35.028 67.4726 35.0857 67.158C35.0975 67.0957 35.1099 67.0367 35.1219 66.9792C35.1623 66.786 35.199 66.6105 35.199 66.3893C35.199 65.7362 35.4172 65.7252 35.7345 65.7092C35.9377 65.6989 36.1814 65.6866 36.4346 65.5026C36.5235 65.2571 36.5597 65.0067 36.5956 64.7578C36.6242 64.56 36.6527 64.3631 36.7074 64.1701C36.7996 63.8617 36.8918 63.8453 37.0692 63.8136C37.1395 63.8011 37.223 63.7862 37.3252 63.7499C37.9224 63.5449 37.9636 62.6326 37.284 62.5814C36.6891 62.5372 36.6953 62.3406 36.7083 61.9258C36.7103 61.8595 36.7126 61.7877 36.7126 61.7101C36.7126 61.4933 36.911 61.4752 37.1339 61.455C37.3693 61.4335 37.6319 61.4096 37.7165 61.1464C37.937 60.4906 37.6079 60.4074 37.2644 60.3207C36.9904 60.2515 36.7074 60.18 36.6868 59.8139C36.66 59.217 36.7615 59.2008 37.1873 59.1328C37.2514 59.1226 37.3229 59.1111 37.4025 59.0964C37.5393 59.0688 37.6197 59.0716 37.6665 59.0732C37.696 59.0742 37.7122 59.0748 37.7208 59.067C37.7312 59.0575 37.7305 59.0357 37.7288 58.9873C37.7279 58.9628 37.7268 58.9314 37.7268 58.8914C37.7268 58.8079 37.7292 58.733 37.7313 58.6654C37.7441 58.268 37.7487 58.1222 37.212 57.9689C36.7229 57.8305 36.6354 57.728 36.6765 57.2258C36.6868 57.0874 36.7538 56.7286 36.9442 56.7286C37.0052 56.7286 37.0631 56.73 37.1178 56.7312C37.53 56.7407 37.7616 56.7461 37.7525 56.1444C37.7453 55.7941 37.5259 55.7212 37.2673 55.6352C37.1588 55.5991 37.0435 55.5607 36.934 55.4986C36.6972 55.3665 36.6879 55.2493 36.6744 55.0794C36.6685 55.0055 36.6619 54.9216 36.6354 54.8221Z" fill="#B05628"/>
<path fill-rule="evenodd" clip-rule="evenodd" d="M14.58 80.4164V105.344L29.6491 109.865V81.4004L14.58 80.4164ZM23.6204 86.3972C22.9151 85.731 22.0451 85.5465 21.1287 85.485C21.115 85.485 21.0969 85.5051 21.0714 85.5336C21.0582 85.5482 21.0431 85.565 21.0257 85.5824C21.5457 87.1199 21.9163 88.6881 21.7516 90.3281C21.424 90.3933 21.1754 90.2916 20.8947 90.1767L20.8764 90.1693C20.5984 88.7291 20.1093 87.3505 19.2804 86.1308C18.5236 86.0949 17.2726 88.3499 17.4425 89.0161C17.561 89.2665 17.9848 89.5363 18.402 89.8019C18.7277 90.0093 19.0494 90.214 19.2186 90.405C19.718 90.979 19.6871 91.5171 19.1208 92.0706C18.7844 91.8084 18.3971 91.6184 17.9834 91.5126C17.5696 91.4067 17.1382 91.3873 16.7166 91.4556C16.1451 92.2756 15.9803 95.0687 16.7011 95.8119C16.8038 95.7121 16.9044 95.6098 17.0047 95.5077C17.5229 94.9803 18.0355 94.4587 18.8119 94.3256C18.908 94.4147 18.938 94.5356 18.9677 94.6555C18.9842 94.7219 19.0006 94.7881 19.0281 94.8484C19.2186 95.2891 19.1208 95.6735 18.8222 96.0579C18.1838 96.8728 17.6329 97.6466 17.4528 98.6973C17.6535 99.5736 18.4 101.624 19.4297 101.88C19.4802 101.473 19.4998 101.064 19.5193 100.657C19.5653 99.6942 19.6108 98.7426 20.063 97.8568C20.9256 98.5875 20.9235 99.6656 20.9215 100.76C20.9204 101.331 20.9193 101.906 21.0411 102.439C21.1956 103.141 21.4633 103.499 22.1223 103.592C22.7706 103.661 23.4249 103.536 24.0014 103.233C24.1266 102.565 23.6528 101.735 23.1734 100.896C22.7852 100.216 22.3934 99.5298 22.3128 98.9176C22.5071 98.6712 22.736 98.4537 22.9923 98.2719C23.0674 98.3914 23.1419 98.512 23.2165 98.6328C23.8841 99.7137 24.5633 100.813 25.7673 101.357C26.4263 100.711 27.3118 98.0207 27.1419 97.1495L27.0218 97.1567L26.849 97.1678L26.8474 97.1679C25.7411 97.2393 24.8012 97.3001 23.9396 96.3859C23.8798 96.1336 23.9271 95.9064 23.9726 95.6878C24.0094 95.5112 24.045 95.3402 24.022 95.1661C25.7776 95.0431 26.3645 94.5409 27.0955 93.6594C27.2345 92.2705 26.4932 90.077 25.6386 88.9854C25.2671 89.4836 25.06 90.0201 24.8527 90.5568C24.5804 91.2623 24.3078 91.9683 23.6616 92.5882C23.0481 91.7317 23.3915 90.6057 23.7283 89.5011C24.0868 88.3255 24.438 87.1741 23.6204 86.3972Z" fill="#DDA34C"/>
<path fill-rule="evenodd" clip-rule="evenodd" d="M31.6363 81.5644L31.7033 111.007L32.7329 111.325C33.5052 108.686 34.8952 109.706 34.9879 112.043L36.9751 112.632C36.9957 109.849 39.4103 110.849 39.0087 113.232L40.8467 113.913L40.7849 82.1999L39.4309 82.1127C39.7295 85.0391 36.7949 85.0084 37.2634 81.9744L35.1012 81.836C35.4461 84.6496 32.4858 84.5727 32.944 81.6566L31.6363 81.5644ZM39.8788 86.141L32.6609 85.3876V92.1731L39.8788 93.2238V86.141ZM39.8788 94.5819L32.6712 93.4287V100.194L39.8788 101.731V94.5819ZM39.8582 102.936L32.6712 101.306V108.05L39.8582 110.023V102.936Z" fill="#DDA34C"/>
<path fill-rule="evenodd" clip-rule="evenodd" d="M4.5511 79.7604L4.53051 90.651L13.2414 91.8349L13.2929 80.3856L4.5511 79.7604ZM9.30299 85.8796L7.88206 82.7687L5.56532 87.863L12.2169 88.888L10.1782 84.2909L9.30299 85.8796ZM12.3765 83.6708C12.3765 83.2044 12.0059 82.8354 11.5374 82.8354C11.0689 82.8354 10.6982 83.2095 10.6982 83.6708C10.6968 83.7811 10.7175 83.8906 10.7592 83.9928C10.8008 84.0951 10.8625 84.188 10.9406 84.2663C11.0187 84.3446 11.1117 84.4065 11.2142 84.4486C11.3167 84.4906 11.4265 84.5119 11.5374 84.5112C11.6482 84.5119 11.758 84.4906 11.8605 84.4486C11.963 84.4065 12.056 84.3446 12.1341 84.2663C12.2122 84.188 12.2739 84.0951 12.3155 83.9928C12.3572 83.8906 12.3779 83.7811 12.3765 83.6708Z" fill="#B05628"/>
<path fill-rule="evenodd" clip-rule="evenodd" d="M4.49962 92.1731V103.038L13.2929 105.175L13.3907 93.4698L4.49962 92.1731ZM9.06102 102.131L8.98894 94.9663L7.23337 96.7241L5.7764 96.514V99.5788L7.32604 99.917L9.06102 102.131ZM11.1049 95.4634C11.0829 95.4581 11.0605 95.4547 11.038 95.4531C10.8938 95.4429 10.8166 95.5197 10.7394 95.6325C10.8484 95.953 10.9652 96.2708 11.0895 96.5858C11.3761 97.3484 11.5428 98.1505 11.5837 98.9637C11.6455 99.8914 11.3469 100.773 11.0174 101.634C10.8784 101.982 10.8217 102.28 11.0277 102.674L11.038 102.684C12.1757 100.783 12.1757 98.8356 11.6455 96.8215C11.5422 96.4392 11.3794 96.0768 11.2207 95.7235C11.1815 95.6363 11.1426 95.5496 11.1049 95.4634ZM10.3018 96.1963C10.4047 96.2014 10.4459 96.268 10.4768 96.3346C10.6982 96.7856 10.8578 97.2418 10.9556 97.744C11.0199 98.1059 11.024 98.4658 11.028 98.825C11.0304 99.0405 11.0328 99.2558 11.0483 99.4711C11.0708 99.7408 11.0164 100.008 10.9634 100.268C10.9439 100.364 10.9245 100.459 10.9093 100.553C10.8806 100.762 10.8034 100.963 10.6837 101.138C10.564 101.313 10.4051 101.458 10.2194 101.562V101.572H10.2091L10.2194 101.562C10.1962 101.305 10.2628 101.067 10.3279 100.835C10.3497 100.758 10.3712 100.681 10.3893 100.604C10.4271 100.434 10.4733 100.263 10.5196 100.092C10.5994 99.7967 10.6797 99.4996 10.7188 99.2046C10.7958 98.6814 10.6575 98.1781 10.518 97.6701C10.4989 97.6009 10.4799 97.5316 10.4614 97.4621L10.2297 96.6729C10.1885 96.5038 10.1576 96.3449 10.2503 96.1963H10.3018ZM9.83841 97.0521C9.77663 97.0367 9.72515 97.0265 9.66852 97.0265C9.6009 97.0289 9.53442 97.0446 9.47289 97.0726H9.48318C9.51341 97.2041 9.54632 97.3342 9.57905 97.4636C9.69681 97.929 9.81222 98.3851 9.79208 98.8664C9.78178 99.2713 9.69941 99.6505 9.61189 100.045L9.60531 100.074C9.57611 100.201 9.54955 100.316 9.67882 100.445C9.84871 100.353 9.98771 100.235 10.0392 100.035C10.0587 99.9507 10.0829 99.8675 10.1071 99.784C10.1595 99.6034 10.2123 99.4214 10.2194 99.2251C10.2593 98.4814 10.129 97.7384 9.83841 97.0521Z" fill="#FFBC59"/>
<path fill-rule="evenodd" clip-rule="evenodd" d="M31.8114 23.411C31.8114 23.0932 31.9813 22.8267 32.1872 22.8267C32.388 22.8267 32.5579 23.083 32.5579 23.411C32.5579 23.7287 32.3931 23.9953 32.1872 23.9953C31.9813 23.9953 31.8114 23.7339 31.8114 23.411ZM33.2684 23.411C33.2684 23.0932 33.4331 22.8267 33.639 22.8267C33.845 22.8267 34.0149 23.083 34.0149 23.411C34.0149 23.7287 33.845 23.9953 33.639 23.9953C33.4383 23.9953 33.2684 23.7339 33.2684 23.411ZM30.9001 24.7691C30.9001 24.4514 31.0649 24.1798 31.2708 24.1798C31.4716 24.1798 31.6466 24.4411 31.6466 24.7691C31.6466 25.0818 31.4819 25.3534 31.276 25.3534C31.07 25.3534 30.9001 25.092 30.9001 24.7691ZM33.8501 25.0766C33.8501 24.7589 34.0149 24.4872 34.2208 24.4872C34.4267 24.4872 34.5966 24.7486 34.5966 25.0766C34.5966 25.3893 34.4267 25.6609 34.2208 25.6609C34.02 25.6609 33.8501 25.3995 33.8501 25.0766ZM33.3816 26.8857C33.3816 26.5731 33.5464 26.3015 33.7523 26.3015C33.9582 26.3015 34.1281 26.5629 34.1281 26.8857C34.1281 27.2035 33.9634 27.4751 33.7523 27.4751C33.5515 27.4751 33.3816 27.2137 33.3816 26.8857ZM32.4498 28.0286C32.4498 27.7109 32.6197 27.4444 32.8256 27.4444C33.0264 27.4444 33.1963 27.7006 33.1963 28.0286C33.1963 28.3464 33.0315 28.6129 32.8256 28.6129C32.6197 28.6129 32.4498 28.3566 32.4498 28.0286Z" fill="#F7651C"/>
<path d="M69.0594 47.8367C68.1866 47.8367 67.3494 48.4142 66.7317 49.4423C66.114 50.4704 65.7661 51.8652 65.7645 53.3205C65.7641 54.0424 65.849 54.7574 66.0144 55.4245C66.1798 56.0917 66.4224 56.698 66.7284 57.2087C67.0344 57.7194 67.3978 58.1245 67.7978 58.4009C68.1977 58.6774 68.6264 58.8196 69.0594 58.8196C69.9333 58.8196 70.7713 58.2408 71.3892 57.2105C72.0072 56.1801 72.3543 54.7827 72.3543 53.3256C72.3543 51.8685 72.0072 50.4711 71.3892 49.4408C70.7713 48.4105 69.9333 47.8367 69.0594 47.8367Z" fill="#FFBC59"/>
<defs>
<linearGradient id="paint0_linear_12_124" x1="8.99998" y1="24.5" x2="88" y2="115.5" gradientUnits="userSpaceOnUse">
<stop stop-color="#F5793B"/>
<stop offset="1" stop-color="#FFBC59"/>
</linearGradient>
</defs>
</svg>
